<svg width="370" height="107" viewBox="0 0 370 107" fill="none" xmlns="http://www.w3.org/2000/svg">
<path d="M343.267 37.5061V8.46643H351.365L361.059 24.8268V8.46643H369.075V37.5061H360.977L351.283 21.9638V37.5061H343.267Z" fill="white"/>
<path d="M317.464 37.5062V8.46651H338.978V14.888H325.48V19.7552H338.487V26.1357H325.48V31.0848H339.305V37.5062H317.464ZM324.581 6.54416L326.789 0H334.151L330.47 6.54416H324.581Z" fill="white"/>
<path d="M293.938 37.5061V8.46643H301.954V31.0847H314.593V37.5061H293.938Z" fill="white"/>
<path d="M270.412 37.5061V8.46643H278.428V31.0847H291.067V37.5061H270.412Z" fill="white"/>
<path d="M252.202 38.1603C249.149 38.1603 246.517 37.5468 244.309 36.3198C242.1 35.0927 240.409 33.3476 239.237 31.0844C238.064 28.8212 237.478 26.1354 237.478 23.0269C237.478 19.9185 238.064 17.2326 239.237 14.9694C240.409 12.679 242.1 10.9202 244.309 9.69321C246.517 8.43892 249.149 7.81177 252.202 7.81177C255.284 7.81177 257.915 8.43892 260.096 9.69321C262.305 10.9202 263.996 12.679 265.168 14.9694C266.341 17.2326 266.927 19.9185 266.927 23.0269C266.927 26.1354 266.341 28.8212 265.168 31.0844C263.996 33.3476 262.305 35.0927 260.096 36.3198C257.915 37.5468 255.284 38.1603 252.202 38.1603ZM252.202 31.7388C254.247 31.7388 255.843 30.989 256.988 29.4893C258.133 27.9623 258.706 25.8082 258.706 23.0269C258.706 20.2457 258.133 18.0915 256.988 16.5646C255.843 15.0103 254.247 14.2332 252.202 14.2332C250.157 14.2332 248.562 15.0103 247.417 16.5646C246.272 18.0915 245.699 20.2457 245.699 23.0269C245.699 25.8082 246.272 27.9623 247.417 29.4893C248.562 30.989 250.157 31.7388 252.202 31.7388Z" fill="white"/>
<path d="M220.632 38.1603C217.932 38.1603 215.519 37.5604 213.392 36.3607C211.293 35.1609 209.629 33.4431 208.402 31.2071C207.203 28.9439 206.603 26.2172 206.603 23.0269C206.603 19.973 207.175 17.3144 208.321 15.0512C209.466 12.7608 211.102 10.9884 213.229 9.73411C215.356 8.45255 217.878 7.81177 220.795 7.81177C224.776 7.81177 227.871 8.77976 230.08 10.7157C232.316 12.6517 233.747 15.4739 234.374 19.1822L226.072 19.4685C225.799 17.8052 225.199 16.5237 224.272 15.6239C223.345 14.6968 222.186 14.2332 220.795 14.2332C218.805 14.2332 217.305 15.0512 216.296 16.6873C215.315 18.3233 214.824 20.4365 214.824 23.0269C214.824 25.6719 215.342 27.7851 216.378 29.3666C217.414 30.9481 218.859 31.7388 220.714 31.7388C222.295 31.7388 223.522 31.2617 224.395 30.3073C225.267 29.3257 225.826 27.9487 226.072 26.1763L234.415 26.4626C233.788 30.2528 232.329 33.1567 230.039 35.1745C227.749 37.165 224.613 38.1603 220.632 38.1603Z" fill="white"/>
<path d="M165.401 37.5061L175.872 8.46643H184.993L195.463 37.5061H187.283L185.647 32.7207H175.176L173.54 37.5061H165.401ZM177.303 26.5038H183.561L180.453 17.301L177.303 26.5038Z" fill="white"/>
<path d="M136.725 37.5061V8.46643H144.823L154.516 24.8268V8.46643H162.533V37.5061H154.435L144.741 21.9638V37.5061H136.725Z" fill="white"/>
<path d="M124.023 37.5061V8.46643H132.039V37.5061H124.023Z" fill="white"/>
<path d="M104.959 37.5061V14.8879H96.4927V8.46643H121.483V14.8879H113.017V37.5061H104.959Z" fill="white"/>
<path d="M83.7338 38.1603C79.7255 38.1603 76.6171 37.2332 74.4084 35.379C72.1997 33.4976 70.9864 30.9617 70.7682 27.7714L78.7439 27.4033C78.9621 28.8212 79.4665 29.9256 80.2572 30.7163C81.0753 31.4798 82.2614 31.8615 83.8156 31.8615C85.0427 31.8615 85.9834 31.657 86.6378 31.248C87.3195 30.8118 87.6603 30.171 87.6603 29.3257C87.6603 28.8076 87.524 28.3577 87.2513 27.976C87.0059 27.5669 86.5015 27.2125 85.738 26.9125C85.0018 26.5853 83.8974 26.2717 82.425 25.9718C79.7801 25.4265 77.6396 24.7993 76.0035 24.0904C74.3675 23.3541 73.1677 22.4134 72.4043 21.2682C71.668 20.123 71.2999 18.6642 71.2999 16.8918C71.2999 15.0921 71.7635 13.5106 72.6906 12.1473C73.6177 10.7839 74.9538 9.72048 76.6989 8.957C78.444 8.19351 80.5436 7.81177 82.9976 7.81177C85.588 7.81177 87.7558 8.24804 89.5009 9.1206C91.246 9.99315 92.5957 11.1929 93.5501 12.7199C94.5317 14.2469 95.1179 16.0192 95.3088 18.037L87.4149 18.3642C87.3059 17.0281 86.8559 15.992 86.0652 15.2557C85.3017 14.4923 84.2519 14.1105 82.9158 14.1105C81.7706 14.1105 80.8844 14.3423 80.2572 14.8058C79.6301 15.2694 79.3165 15.8829 79.3165 16.6464C79.3165 17.5462 79.671 18.2415 80.3799 18.7323C81.1162 19.1959 82.425 19.5913 84.3064 19.9185C87.1695 20.4093 89.4327 21.0773 91.096 21.9226C92.7593 22.7679 93.9318 23.7768 94.6135 24.9493C95.3224 26.1218 95.6769 27.4715 95.6769 28.9985C95.6769 31.8343 94.6271 34.0702 92.5275 35.7062C90.428 37.3423 87.4967 38.1603 83.7338 38.1603Z" fill="white"/>
<path d="M58.8769 37.5061V8.46643H66.8935V37.5061H58.8769Z" fill="white"/>
<path d="M29.679 37.5061V8.46643H43.5444C45.7258 8.46643 47.6209 8.82091 49.2297 9.52986C50.8657 10.2388 52.12 11.2341 52.9925 12.5156C53.8924 13.7972 54.3423 15.3105 54.3423 17.0556C54.3423 18.8825 53.8787 20.4232 52.9516 21.6775C52.0518 22.9317 50.7703 23.8179 49.107 24.336C50.6612 24.5269 51.8201 25.045 52.5835 25.8903C53.3743 26.7355 53.8242 27.8808 53.9333 29.3259L54.5877 37.5061H46.4075L45.9985 30.7166C45.9439 29.6531 45.6576 28.876 45.1396 28.3852C44.6215 27.8671 43.708 27.6081 42.3992 27.6081H37.6956V37.5061H29.679ZM37.6956 21.1866H42.072C43.4081 21.1866 44.417 20.914 45.0987 20.3686C45.8076 19.796 46.1621 19.0053 46.1621 17.9964C46.1621 15.924 44.7987 14.8879 42.072 14.8879H37.6956V21.1866Z" fill="white"/>
<path d="M0.600983 37.5061V8.46643H8.61758V19.9596L17.4931 8.46643H26.5731L16.3888 21.432L27.1457 37.5061H18.2702L11.1534 26.6265L8.61758 29.7349V37.5061H0.600983Z" fill="white"/>
<path fill-rule="evenodd" clip-rule="evenodd" d="M0.600983 60.625C0.600983 60.3683 0.809037 60.1603 1.06569 60.1603H369.177C369.434 60.1603 369.642 60.3683 369.642 60.625C369.642 60.8816 369.434 61.0897 369.177 61.0897H1.06569C0.809037 61.0897 0.600983 60.8816 0.600983 60.625Z" fill="white"/>
<path d="M361.659 106.022C359.948 106.022 358.495 105.628 357.301 104.84C356.107 104.029 355.184 102.925 354.531 101.529C353.9 100.11 353.585 98.4884 353.585 96.664C353.585 94.8397 353.9 93.2293 354.531 91.8329C355.162 90.414 356.062 89.3104 357.234 88.5221C358.427 87.7113 359.857 87.3059 361.524 87.3059C363.123 87.3059 364.497 87.6888 365.646 88.4546C366.817 89.2203 367.718 90.3014 368.348 91.6978C368.979 93.0942 369.294 94.7271 369.294 96.5965V97.3059H355.916C356.006 99.423 356.558 101.056 357.571 102.205C358.585 103.331 359.948 103.894 361.659 103.894C362.966 103.894 364.035 103.578 364.869 102.948C365.702 102.317 366.276 101.484 366.592 100.448L368.99 100.617C368.54 102.193 367.673 103.488 366.389 104.502C365.105 105.515 363.529 106.022 361.659 106.022ZM355.916 95.3127H366.862C366.749 93.3983 366.22 91.9456 365.274 90.9546C364.328 89.941 363.078 89.4343 361.524 89.4343C359.97 89.4343 358.698 89.9523 357.707 90.9883C356.716 92.0019 356.119 93.4433 355.916 95.3127Z" fill="white"/>
<path d="M342.06 105.617V87.7112H343.985L344.087 91.2585C344.785 88.8936 346.283 87.7112 348.58 87.7112H350.134V89.8733H348.512C347.161 89.8733 346.114 90.3125 345.371 91.1909C344.65 92.0468 344.289 93.2179 344.289 94.7044V105.617H342.06Z" fill="white"/>
<path d="M326.757 106.022C324.955 106.022 323.513 105.594 322.432 104.738C321.351 103.883 320.811 102.7 320.811 101.191C320.811 99.7271 321.284 98.5672 322.23 97.7113C323.176 96.833 324.561 96.2248 326.385 95.887L333.007 94.637C333.007 92.8577 332.624 91.5514 331.858 90.7181C331.092 89.8622 329.932 89.4343 328.378 89.4343C327.004 89.4343 325.912 89.7609 325.101 90.414C324.29 91.0672 323.75 91.9906 323.48 93.1843L321.115 92.9816C321.453 91.2474 322.241 89.8735 323.48 88.86C324.741 87.8239 326.374 87.3059 328.378 87.3059C330.608 87.3059 332.308 87.9365 333.48 89.1978C334.651 90.4591 335.236 92.2609 335.236 94.6032V102.069C335.236 102.678 335.326 103.094 335.507 103.319C335.709 103.522 336.025 103.624 336.453 103.624H336.993V105.617C336.768 105.662 336.464 105.684 336.081 105.684C335.113 105.684 334.381 105.459 333.885 105.009C333.39 104.536 333.097 103.714 333.007 102.542C332.556 103.533 331.757 104.367 330.608 105.042C329.459 105.696 328.176 106.022 326.757 106.022ZM326.959 104.029C328.198 104.029 329.268 103.781 330.169 103.286C331.07 102.79 331.768 102.126 332.263 101.292C332.759 100.437 333.007 99.4794 333.007 98.4208V96.6302L326.858 97.7789C325.574 98.0041 324.628 98.387 324.02 98.9275C323.435 99.4456 323.142 100.133 323.142 100.988C323.142 101.957 323.48 102.711 324.155 103.252C324.831 103.77 325.766 104.029 326.959 104.029Z" fill="white"/>
<path d="M309.038 106.022C306.718 106.022 304.905 105.459 303.599 104.333C302.315 103.207 301.606 101.799 301.471 100.11L303.802 99.9411C303.937 101.135 304.432 102.092 305.288 102.813C306.167 103.533 307.417 103.894 309.038 103.894C310.457 103.894 311.561 103.657 312.349 103.184C313.137 102.711 313.532 101.979 313.532 100.988C313.532 100.448 313.408 99.9974 313.16 99.637C312.935 99.2541 312.462 98.9275 311.741 98.6573C311.02 98.3645 309.939 98.0942 308.498 97.8465C306.809 97.5537 305.491 97.182 304.545 96.7316C303.599 96.2586 302.935 95.6956 302.552 95.0424C302.169 94.3893 301.977 93.601 301.977 92.6775C301.977 91.101 302.552 89.8172 303.7 88.8262C304.849 87.8127 306.448 87.3059 308.498 87.3059C309.894 87.3059 311.077 87.5649 312.045 88.0829C313.036 88.5784 313.813 89.2541 314.376 90.11C314.939 90.9658 315.311 91.9005 315.491 92.914L313.16 93.1167C312.98 92.0807 312.496 91.2136 311.707 90.5154C310.919 89.7947 309.838 89.4343 308.464 89.4343C307.113 89.4343 306.077 89.7271 305.356 90.3127C304.658 90.8757 304.309 91.6302 304.309 92.5762C304.309 93.5447 304.646 94.2654 305.322 94.7384C305.998 95.1888 307.225 95.5717 309.005 95.887C310.784 96.1798 312.169 96.5514 313.16 97.0019C314.173 97.4298 314.883 97.9703 315.288 98.6235C315.694 99.2541 315.896 100.031 315.896 100.955C315.896 102.576 315.255 103.826 313.971 104.705C312.709 105.583 311.065 106.022 309.038 106.022Z" fill="white"/>
<path d="M287.417 106.022C285.615 106.022 284.174 105.594 283.093 104.738C282.011 103.882 281.471 102.7 281.471 101.191C281.471 99.7271 281.944 98.5672 282.89 97.7113C283.836 96.8329 285.221 96.2248 287.045 95.887L293.667 94.637C293.667 92.8577 293.284 91.5514 292.518 90.7181C291.752 89.8622 290.593 89.4343 289.039 89.4343C287.665 89.4343 286.572 89.7609 285.761 90.414C284.951 91.0672 284.41 91.9906 284.14 93.1843L281.775 92.9816C282.113 91.2473 282.901 89.8735 284.14 88.86C285.401 87.8239 287.034 87.3059 289.039 87.3059C291.268 87.3059 292.969 87.9365 294.14 89.1978C295.311 90.4591 295.897 92.2609 295.897 94.6032V102.069C295.897 102.678 295.987 103.094 296.167 103.319C296.37 103.522 296.685 103.623 297.113 103.623H297.653V105.617C297.428 105.662 297.124 105.684 296.741 105.684C295.773 105.684 295.041 105.459 294.545 105.009C294.05 104.536 293.757 103.714 293.667 102.542C293.216 103.533 292.417 104.367 291.268 105.042C290.12 105.696 288.836 106.022 287.417 106.022ZM287.62 104.029C288.858 104.029 289.928 103.781 290.829 103.286C291.73 102.79 292.428 102.126 292.924 101.292C293.419 100.437 293.667 99.4793 293.667 98.4208V96.6302L287.518 97.7789C286.234 98.0041 285.289 98.387 284.68 98.9275C284.095 99.4456 283.802 100.132 283.802 100.988C283.802 101.957 284.14 102.711 284.816 103.252C285.491 103.77 286.426 104.029 287.62 104.029ZM285.289 84.7383V81.7316H287.653V84.7383H285.289ZM290.66 84.7383V81.7316H293.025V84.7383H290.66Z" fill="white"/>
<path d="M275.598 105.617C274.585 105.617 273.785 105.369 273.2 104.874C272.614 104.356 272.321 103.556 272.321 102.475V81.6304H274.551V102.306C274.551 103.184 275.001 103.624 275.902 103.624H277.321V105.617H275.598Z" fill="white"/>
<path d="M258.784 106.022C257.072 106.022 255.619 105.628 254.425 104.84C253.232 104.029 252.308 102.925 251.655 101.529C251.025 100.11 250.709 98.4884 250.709 96.664C250.709 94.8397 251.025 93.2293 251.655 91.8329C252.286 90.414 253.187 89.3104 254.358 88.5221C255.552 87.7113 256.982 87.3059 258.648 87.3059C260.248 87.3059 261.621 87.6888 262.77 88.4546C263.941 89.2203 264.842 90.3014 265.473 91.6978C266.103 93.0942 266.419 94.7271 266.419 96.5965V97.3059H253.04C253.13 99.423 253.682 101.056 254.696 102.205C255.709 103.331 257.072 103.894 258.784 103.894C260.09 103.894 261.16 103.578 261.993 102.948C262.826 102.317 263.401 101.484 263.716 100.448L266.115 100.617C265.664 102.193 264.797 103.488 263.513 104.502C262.23 105.515 260.653 106.022 258.784 106.022ZM253.04 95.3127H263.986C263.874 93.3983 263.344 91.9456 262.398 90.9546C261.452 89.941 260.202 89.4343 258.648 89.4343C257.094 89.4343 255.822 89.9523 254.831 90.9883C253.84 92.0019 253.243 93.4433 253.04 95.3127Z" fill="white"/>
<path d="M239.184 105.617V87.7112H241.11L241.211 91.2585C241.909 88.8936 243.407 87.7112 245.704 87.7112H247.258V89.8733H245.637C244.285 89.8733 243.238 90.3125 242.495 91.1909C241.774 92.0468 241.414 93.2179 241.414 94.7044V105.617H239.184Z" fill="white"/>
<path d="M225.513 106.022C223.891 106.022 222.484 105.639 221.29 104.873C220.096 104.108 219.162 103.027 218.486 101.63C217.833 100.234 217.506 98.5784 217.506 96.664C217.506 94.7496 217.833 93.0942 218.486 91.6978C219.162 90.3014 220.096 89.2203 221.29 88.4546C222.484 87.6888 223.891 87.3059 225.513 87.3059C227.134 87.3059 228.542 87.6888 229.736 88.4546C230.93 89.2203 231.853 90.3014 232.506 91.6978C233.159 93.0942 233.486 94.7496 233.486 96.664C233.486 98.5784 233.159 100.234 232.506 101.63C231.853 103.027 230.93 104.108 229.736 104.873C228.542 105.639 227.134 106.022 225.513 106.022ZM225.513 103.894C227.27 103.894 228.644 103.252 229.634 101.968C230.648 100.662 231.155 98.8938 231.155 96.664C231.155 94.4118 230.648 92.6437 229.634 91.36C228.644 90.0762 227.27 89.4343 225.513 89.4343C223.734 89.4343 222.337 90.0762 221.324 91.36C220.333 92.6437 219.837 94.4118 219.837 96.664C219.837 98.8938 220.333 100.662 221.324 101.968C222.337 103.252 223.734 103.894 225.513 103.894ZM221.662 84.7383V81.7316H224.026V84.7383H221.662ZM227.033 84.7383V81.7316H229.398V84.7383H227.033Z" fill="white"/>
<path d="M207.344 105.617V89.7047H204.81V87.7115H207.344V85.8534C207.344 84.5696 207.704 83.5448 208.425 82.779C209.146 82.0133 210.261 81.6304 211.77 81.6304H214.337V83.6236H211.939C211.105 83.6236 210.497 83.8376 210.114 84.2655C209.754 84.6709 209.574 85.2565 209.574 86.0223V87.7115H214.168V89.7047H209.574V105.617H207.344Z" fill="white"/>
<path d="M179.121 106.157C176.891 106.157 175.112 105.606 173.783 104.502C172.454 103.398 171.79 101.822 171.79 99.7722C171.79 98.1731 172.173 96.8217 172.939 95.7181C173.727 94.6145 174.977 93.4771 176.689 92.306C175.788 91.1123 175.112 90.0875 174.662 89.2316C174.234 88.3758 174.02 87.4298 174.02 86.3938C174.02 84.7496 174.515 83.4546 175.506 82.5086C176.52 81.5627 177.871 81.0897 179.56 81.0897C181.227 81.0897 182.533 81.5402 183.479 82.4411C184.448 83.3195 184.932 84.5469 184.932 86.1235C184.932 87.4073 184.549 88.5672 183.783 89.6032C183.017 90.6168 181.722 91.7091 179.898 92.8803L185.912 100.515C186.745 99.3668 187.195 97.7564 187.263 95.6843L189.56 95.9208C189.493 97.1145 189.256 98.2857 188.851 99.4343C188.445 100.56 187.939 101.495 187.331 102.238L190.101 105.617H187.364L185.912 103.826C185.213 104.524 184.301 105.088 183.175 105.515C182.049 105.943 180.698 106.157 179.121 106.157ZM178.682 91.2587C180.101 90.3352 181.092 89.5132 181.655 88.7924C182.24 88.0717 182.533 87.2271 182.533 86.2586C182.533 85.3352 182.274 84.6258 181.756 84.1303C181.238 83.6122 180.506 83.3532 179.56 83.3532C178.592 83.3532 177.826 83.6235 177.263 84.164C176.722 84.7046 176.452 85.4478 176.452 86.3938C176.452 87.137 176.61 87.8577 176.925 88.5559C177.24 89.2541 177.826 90.155 178.682 91.2587ZM179.391 103.995C180.54 103.995 181.542 103.826 182.398 103.488C183.276 103.128 183.952 102.678 184.425 102.137L178.04 94.0627C176.666 94.9861 175.686 95.887 175.101 96.7654C174.515 97.6438 174.222 98.6461 174.222 99.7722C174.222 101.101 174.662 102.137 175.54 102.88C176.418 103.624 177.702 103.995 179.391 103.995Z" fill="white"/>
<path d="M149.336 106.022C147.624 106.022 146.171 105.628 144.978 104.84C143.784 104.029 142.861 102.925 142.207 101.529C141.577 100.11 141.262 98.4884 141.262 96.664C141.262 94.8397 141.577 93.2293 142.207 91.8329C142.838 90.414 143.739 89.3104 144.91 88.5221C146.104 87.7113 147.534 87.3059 149.201 87.3059C150.8 87.3059 152.174 87.6888 153.322 88.4546C154.494 89.2203 155.394 90.3014 156.025 91.6978C156.656 93.0942 156.971 94.7271 156.971 96.5965V97.3059H143.593C143.683 99.423 144.235 101.056 145.248 102.205C146.262 103.331 147.624 103.894 149.336 103.894C150.642 103.894 151.712 103.578 152.545 102.948C153.379 102.317 153.953 101.484 154.268 100.448L156.667 100.617C156.217 102.193 155.349 103.488 154.066 104.502C152.782 105.515 151.205 106.022 149.336 106.022ZM143.593 95.3127H154.539C154.426 93.3983 153.897 91.9456 152.951 90.9546C152.005 89.941 150.755 89.4343 149.201 89.4343C147.647 89.4343 146.374 89.9523 145.383 90.9883C144.392 92.0019 143.795 93.4433 143.593 95.3127Z" fill="white"/>
<path d="M129.736 105.617V87.7112H131.662L131.763 91.2585C132.461 88.8936 133.959 87.7112 136.257 87.7112H137.811V89.8733H136.189C134.838 89.8733 133.79 90.3125 133.047 91.1909C132.326 92.0468 131.966 93.2179 131.966 94.7044V105.617H129.736Z" fill="white"/>
<path d="M114.433 106.022C112.631 106.022 111.19 105.594 110.109 104.738C109.028 103.883 108.487 102.7 108.487 101.191C108.487 99.7271 108.96 98.5672 109.906 97.7113C110.852 96.833 112.237 96.2248 114.062 95.887L120.683 94.637C120.683 92.8577 120.3 91.5514 119.535 90.7181C118.769 89.8622 117.609 89.4343 116.055 89.4343C114.681 89.4343 113.589 89.7609 112.778 90.414C111.967 91.0672 111.426 91.9906 111.156 93.1843L108.791 92.9816C109.129 91.2474 109.917 89.8735 111.156 88.86C112.417 87.8239 114.05 87.3059 116.055 87.3059C118.285 87.3059 119.985 87.9365 121.156 89.1978C122.327 90.4591 122.913 92.2609 122.913 94.6032V102.069C122.913 102.678 123.003 103.094 123.183 103.319C123.386 103.522 123.701 103.624 124.129 103.624H124.67V105.617C124.444 105.662 124.14 105.684 123.758 105.684C122.789 105.684 122.057 105.459 121.562 105.009C121.066 104.536 120.773 103.714 120.683 102.542C120.233 103.533 119.433 104.367 118.285 105.042C117.136 105.696 115.852 106.022 114.433 106.022ZM114.636 104.029C115.875 104.029 116.944 103.781 117.845 103.286C118.746 102.79 119.444 102.126 119.94 101.292C120.435 100.437 120.683 99.4794 120.683 98.4208V96.6302L114.535 97.7789C113.251 98.0041 112.305 98.387 111.697 98.9275C111.111 99.4456 110.818 100.133 110.818 100.988C110.818 101.957 111.156 102.711 111.832 103.252C112.508 103.77 113.442 104.029 114.636 104.029Z" fill="white"/>
<path d="M92.1926 105.617C89.3323 105.617 87.9021 104.22 87.9021 101.428V89.7047H85.098V87.7114H87.9021V83.5222H90.1318V87.7114H94.7602V89.7047H90.1318V101.36C90.1318 102.193 90.312 102.779 90.6724 103.117C91.0552 103.455 91.6296 103.624 92.3953 103.624H94.7602V105.617H92.1926ZM101.787 105.617C98.9269 105.617 97.4967 104.22 97.4967 101.428V89.7047H94.6926V87.7114H97.4967V83.5222H99.7264V87.7114H104.355V89.7047H99.7264V101.36C99.7264 102.193 99.9066 102.779 100.267 103.117C100.65 103.455 101.224 103.624 101.99 103.624H104.355V105.617H101.787Z" fill="white"/>
<path d="M71.6624 106.022C69.8606 106.022 68.4191 105.594 67.3381 104.738C66.257 103.883 65.7164 102.7 65.7164 101.191C65.7164 99.7271 66.1894 98.5672 67.1354 97.7113C68.0813 96.833 69.4664 96.2248 71.2908 95.887L77.9124 94.637C77.9124 92.8577 77.5295 91.5514 76.7637 90.7181C75.998 89.8622 74.8381 89.4343 73.284 89.4343C71.9101 89.4343 70.8178 89.7609 70.007 90.414C69.1962 91.0672 68.6556 91.9906 68.3854 93.1843L66.0205 92.9816C66.3583 91.2474 67.1466 89.8735 68.3854 88.86C69.6466 87.8239 71.2795 87.3059 73.284 87.3059C75.5137 87.3059 77.2142 87.9365 78.3854 89.1978C79.5565 90.4591 80.1421 92.2609 80.1421 94.6032V102.069C80.1421 102.678 80.2322 103.094 80.4124 103.319C80.6151 103.522 80.9304 103.624 81.3583 103.624H81.8989V105.617C81.6737 105.662 81.3696 105.684 80.9867 105.684C80.0183 105.684 79.2863 105.459 78.7908 105.009C78.2953 104.536 78.0025 103.714 77.9124 102.542C77.4619 103.533 76.6624 104.367 75.5137 105.042C74.3651 105.696 73.0813 106.022 71.6624 106.022ZM71.8651 104.029C73.1038 104.029 74.1736 103.781 75.0746 103.286C75.9755 102.79 76.6737 102.126 77.1692 101.292C77.6646 100.437 77.9124 99.4794 77.9124 98.4208V96.6302L71.7637 97.7789C70.4799 98.0041 69.534 98.387 68.9259 98.9275C68.3403 99.4456 68.0475 100.133 68.0475 100.988C68.0475 101.957 68.3854 102.711 69.061 103.252C69.7367 103.77 70.6714 104.029 71.8651 104.029Z" fill="white"/>
<path d="M55.1255 105.617V89.7047H52.5917V87.7115H55.1255V85.8534C55.1255 84.5696 55.4858 83.5448 56.2065 82.779C56.9273 82.0133 58.0421 81.6304 59.5511 81.6304H62.1187V83.6236H59.7201C58.8867 83.6236 58.2786 83.8376 57.8957 84.2655C57.5354 84.6709 57.3552 85.2565 57.3552 86.0223V87.7115H61.9498V89.7047H57.3552V105.617H55.1255Z" fill="white"/>
<path d="M40.9547 105.617V87.7112H42.8804L42.9817 91.2585C43.6799 88.8936 45.1777 87.7112 47.475 87.7112H49.029V89.8733H47.4074C46.056 89.8733 45.0087 90.3125 44.2655 91.1909C43.5448 92.0468 43.1844 93.2179 43.1844 94.7044V105.617H40.9547Z" fill="white"/>
<path d="M27.2836 106.022C25.662 106.022 24.2543 105.639 23.0606 104.873C21.8669 104.108 20.9322 103.027 20.2566 101.63C19.6034 100.234 19.2768 98.5784 19.2768 96.664C19.2768 94.7496 19.6034 93.0942 20.2566 91.6978C20.9322 90.3014 21.8669 89.2203 23.0606 88.4546C24.2543 87.6888 25.662 87.3059 27.2836 87.3059C28.9052 87.3059 30.3129 87.6888 31.5066 88.4546C32.7003 89.2203 33.6237 90.3014 34.2768 91.6978C34.93 93.0942 35.2566 94.7496 35.2566 96.664C35.2566 98.5784 34.93 100.234 34.2768 101.63C33.6237 103.027 32.7003 104.108 31.5066 104.873C30.3129 105.639 28.9052 106.022 27.2836 106.022ZM27.2836 103.894C29.0404 103.894 30.4142 103.252 31.4052 101.968C32.4187 100.662 32.9255 98.8938 32.9255 96.664C32.9255 94.4118 32.4187 92.6437 31.4052 91.36C30.4142 90.0762 29.0404 89.4343 27.2836 89.4343C25.5043 89.4343 24.1079 90.0762 23.0944 91.36C22.1034 92.6437 21.6079 94.4118 21.6079 96.664C21.6079 98.8938 22.1034 100.662 23.0944 101.968C24.1079 103.252 25.5043 103.894 27.2836 103.894ZM23.4322 84.7383V81.7316H25.7971V84.7383H23.4322ZM28.8039 84.7383V81.7316H31.1687V84.7383H28.8039Z" fill="white"/>
<path d="M0.600983 105.617V81.6304H15.3645V83.8601H2.89828V92.7115H14.7564V94.9074H2.89828V105.617H0.600983Z" fill="white"/>
</svg>
