<svg width="363" height="103" viewBox="0 0 363 103" fill="none" xmlns="http://www.w3.org/2000/svg">
<path d="M337.428 14.4373C338.906 14.0284 340.18 13.6509 341.249 13.3049C342.35 12.959 343.545 12.5343 344.835 12.0311L345.26 12.1254V16.4189C346.172 15.5696 346.974 14.8619 347.666 14.2957C348.358 13.7296 348.987 13.2892 349.553 12.9747C350.151 12.6287 350.717 12.3928 351.252 12.267C351.818 12.1097 352.415 12.0311 353.044 12.0311C355.026 12.0311 356.583 12.7388 357.715 14.1542C358.848 15.5696 359.414 17.5512 359.414 20.099V32.4603C359.414 33.7499 359.634 34.6306 360.074 35.1024C360.515 35.5742 361.38 35.8887 362.669 36.046V36.8009H351.487V36.046C352.148 35.9831 352.698 35.873 353.139 35.7157C353.579 35.5585 353.925 35.3068 354.177 34.9608C354.46 34.6149 354.649 34.1588 354.743 33.5926C354.837 33.0264 354.885 32.3187 354.885 31.4695V20.1933C354.885 16.7334 353.579 15.0034 350.969 15.0034C350.528 15.0034 350.104 15.0506 349.695 15.145C349.286 15.2393 348.861 15.3966 348.421 15.6168C348.012 15.837 347.556 16.1515 347.053 16.5604C346.581 16.9693 346.015 17.4726 345.354 18.0702V33.2152C345.354 34.1902 345.606 34.8822 346.109 35.2911C346.612 35.6686 347.556 35.9202 348.94 36.046V36.8009H337.522V36.046C338.214 35.9831 338.764 35.8887 339.173 35.7629C339.614 35.6056 339.96 35.3697 340.211 35.0552C340.463 34.7407 340.636 34.3475 340.73 33.8757C340.825 33.3724 340.872 32.7434 340.872 31.9885V18.5892C340.872 17.2681 340.73 16.3717 340.447 15.8999C340.164 15.3966 339.645 15.145 338.89 15.145C338.324 15.145 337.837 15.2236 337.428 15.3809V14.4373Z" fill="black"/>
<path d="M333.078 28.3555C331.945 31.3122 330.404 33.5454 328.454 35.0552C326.535 36.565 324.271 37.3199 321.66 37.3199C320.119 37.3199 318.719 37.0368 317.461 36.4706C316.234 35.9044 315.18 35.1024 314.3 34.0644C313.419 33.0264 312.743 31.7683 312.271 30.29C311.799 28.8116 311.563 27.1446 311.563 25.2888C311.563 23.3072 311.831 21.5144 312.365 19.9102C312.931 18.2746 313.702 16.8749 314.677 15.7111C315.684 14.5474 316.879 13.6509 318.263 13.0218C319.647 12.3613 321.172 12.0311 322.839 12.0311C324.255 12.0311 325.544 12.2984 326.708 12.8331C327.903 13.3678 328.91 14.1227 329.728 15.0978C330.074 15.5381 330.357 15.9785 330.577 16.4189C330.829 16.8592 331.033 17.3467 331.19 17.8815C331.379 18.3847 331.536 18.9666 331.662 19.6271C331.788 20.2877 331.914 21.0426 332.04 21.8918H315.479C315.511 23.6218 315.652 25.0372 315.904 26.1381C316.155 27.2075 316.549 28.2612 317.083 29.2992C318.625 32.1929 320.889 33.6398 323.877 33.6398C325.607 33.6398 327.101 33.2152 328.36 32.3659C329.649 31.5167 330.939 30.0698 332.228 28.0253L333.078 28.3555ZM326.567 20.1461C326.221 17.8185 325.655 16.2144 324.868 15.3337C324.113 14.4215 322.918 13.9655 321.282 13.9655C319.615 13.9655 318.31 14.453 317.366 15.4281C316.454 16.4031 315.857 17.9758 315.574 20.1461H326.567ZM318.263 9.53048L326.189 1.55696C326.661 1.08515 327.054 0.754887 327.369 0.566165C327.683 0.377442 328.045 0.283081 328.454 0.283081C329.712 0.283081 330.341 0.864975 330.341 2.02876C330.341 2.84656 329.791 3.60145 328.69 4.29343L320.386 9.53048H318.263Z" fill="black"/>
<path d="M293.814 2.35903C294.758 2.13885 295.591 1.95013 296.314 1.79286C297.069 1.60414 297.777 1.41542 298.438 1.2267C299.13 1.03797 299.79 0.849251 300.419 0.660529C301.048 0.471806 301.709 0.25163 302.401 0L302.637 0.141542V32.2715C302.637 33.0264 302.684 33.6398 302.778 34.1116C302.873 34.5519 303.061 34.9137 303.344 35.1967C303.627 35.4484 304.021 35.6371 304.524 35.7629C305.059 35.8887 305.751 35.9831 306.6 36.046V36.8009H293.955V36.046C294.805 35.9516 295.497 35.8415 296.031 35.7157C296.566 35.5585 296.991 35.3383 297.305 35.0552C297.62 34.7407 297.824 34.3475 297.919 33.8757C298.044 33.4039 298.107 32.8063 298.107 32.0828V6.41656C298.107 5.15841 297.934 4.30916 297.588 3.86881C297.274 3.397 296.692 3.1611 295.843 3.1611C295.591 3.1611 295.308 3.17683 294.993 3.20828C294.71 3.20828 294.427 3.22401 294.144 3.25546H293.814V2.35903Z" fill="black"/>
<path d="M276.395 2.35903C277.338 2.13885 278.172 1.95013 278.895 1.79286C279.65 1.60414 280.358 1.41542 281.019 1.2267C281.711 1.03797 282.371 0.849251 283 0.660529C283.629 0.471806 284.29 0.25163 284.982 0L285.218 0.141542V32.2715C285.218 33.0264 285.265 33.6398 285.359 34.1116C285.454 34.5519 285.642 34.9137 285.925 35.1967C286.208 35.4484 286.602 35.6371 287.105 35.7629C287.64 35.8887 288.332 35.9831 289.181 36.046V36.8009H276.536V36.046C277.386 35.9516 278.078 35.8415 278.612 35.7157C279.147 35.5585 279.572 35.3383 279.886 35.0552C280.201 34.7407 280.405 34.3475 280.5 33.8757C280.625 33.4039 280.688 32.8063 280.688 32.0828V6.41656C280.688 5.15841 280.515 4.30916 280.169 3.86881C279.855 3.397 279.273 3.1611 278.424 3.1611C278.172 3.1611 277.889 3.17683 277.574 3.20828C277.291 3.20828 277.008 3.22401 276.725 3.25546H276.395V2.35903Z" fill="black"/>
<path d="M259.495 12.0311C261.225 12.0311 262.813 12.3299 264.26 12.9275C265.707 13.5251 266.949 14.3744 267.987 15.4753C269.057 16.5447 269.89 17.8186 270.488 19.2969C271.085 20.7752 271.384 22.4108 271.384 24.2037C271.384 26.0909 271.07 27.8366 270.441 29.4407C269.843 31.0134 269.009 32.3974 267.94 33.5926C266.871 34.7564 265.597 35.6686 264.118 36.3291C262.672 36.9896 261.099 37.3199 259.4 37.3199C257.702 37.3199 256.129 37.0053 254.682 36.3763C253.235 35.7472 251.993 34.8665 250.955 33.7342C249.917 32.6018 249.099 31.265 248.502 29.7238C247.904 28.1826 247.605 26.4998 247.605 24.6755C247.605 22.8197 247.888 21.1212 248.454 19.58C249.052 18.0073 249.87 16.6705 250.908 15.5696C251.946 14.4373 253.188 13.5723 254.635 12.9747C256.113 12.3456 257.733 12.0311 259.495 12.0311ZM258.693 13.5408C256.805 13.5408 255.296 14.3115 254.163 15.8527C253.031 17.3939 252.465 19.4384 252.465 21.9862C252.465 23.9049 252.669 25.7764 253.078 27.6007C253.487 29.3935 254.069 30.9977 254.824 32.4131C255.39 33.514 256.145 34.3632 257.089 34.9608C258.032 35.5585 259.054 35.8573 260.155 35.8573C262.137 35.8573 263.678 34.9923 264.779 33.2623C265.911 31.5009 266.477 29.0947 266.477 26.0437C266.477 23.7476 266.147 21.6087 265.487 19.6271C264.826 17.6456 263.93 16.1515 262.797 15.145C262.2 14.5788 261.571 14.1699 260.91 13.9183C260.25 13.6667 259.51 13.5408 258.693 13.5408Z" fill="black"/>
<path d="M239.905 12.55C239.654 11.6693 239.402 10.9144 239.15 10.2854C238.899 9.62484 238.632 9.04295 238.348 8.53969C238.097 8.00497 237.798 7.53317 237.452 7.12427C237.137 6.71537 236.76 6.29075 236.32 5.85039C235.25 4.74951 234.024 3.93171 232.64 3.397C231.287 2.83083 229.84 2.54775 228.299 2.54775C226.349 2.54775 224.572 2.92519 222.968 3.68008C221.395 4.43497 220.042 5.52013 218.91 6.93555C217.809 8.31951 216.96 10.0023 216.362 11.9839C215.765 13.9655 215.466 16.1672 215.466 18.5892C215.466 21.7345 215.89 24.4867 216.74 26.8458C217.589 29.2048 218.8 31.0448 220.373 32.3659C222.732 34.2531 225.547 35.1967 228.818 35.1967C231.051 35.1967 233.111 34.7721 234.999 33.9229C236.886 33.0736 238.836 31.6896 240.849 29.771L241.793 30.7146C240.157 32.8849 238.065 34.5677 235.518 35.7629C233.001 36.9581 230.202 37.5558 227.119 37.5558C224.446 37.5558 222.008 37.1154 219.806 36.2347C217.605 35.354 215.717 34.1273 214.145 32.5546C212.572 30.9505 211.345 29.0318 210.465 26.7986C209.615 24.5654 209.191 22.0805 209.191 19.344C209.191 16.2301 209.726 13.4307 210.795 10.9459C211.864 8.4296 213.437 6.3222 215.513 4.6237C217.149 3.30264 218.989 2.28039 221.033 1.55696C223.078 0.802067 225.138 0.424622 227.214 0.424622C229.887 0.424622 232.529 0.864974 235.14 1.74568C236.021 2.06022 236.729 2.21749 237.263 2.21749C237.798 2.21749 238.254 2.06022 238.632 1.74568C239.04 1.43114 239.323 0.990789 239.481 0.424622H240.613L241.132 12.55H239.905Z" fill="black"/>
<path d="M184.638 31.1392C184.638 32.3345 184.748 33.168 184.968 33.6398C185.188 34.0801 185.613 34.3003 186.242 34.3003C186.966 34.3003 187.752 33.9701 188.601 33.3095V34.6778C187.689 35.6843 186.887 36.3763 186.195 36.7537C185.503 37.1312 184.701 37.3199 183.789 37.3199C182.688 37.3199 181.87 37.0211 181.335 36.4234C180.832 35.7944 180.518 34.7564 180.392 33.3095C178.756 34.7249 177.325 35.7472 176.098 36.3763C174.872 37.0053 173.676 37.3199 172.513 37.3199C170.814 37.3199 169.43 36.7852 168.361 35.7157C167.323 34.6463 166.804 33.2623 166.804 31.5638C166.804 30.7146 166.961 29.8653 167.276 29.0161C167.622 28.1354 168.109 27.4277 168.738 26.893C169.304 26.3897 169.823 25.9651 170.295 25.6191C170.798 25.2416 171.443 24.8642 172.229 24.4868C173.016 24.0779 174.038 23.6218 175.296 23.1185C176.554 22.6153 178.221 21.939 180.297 21.0897V17.6456C180.297 16.1672 179.936 15.0506 179.212 14.2957C178.52 13.5408 177.514 13.1634 176.193 13.1634C175.092 13.1634 174.164 13.4308 173.409 13.9655C172.686 14.4687 172.324 15.0821 172.324 15.8055C172.324 16.0886 172.355 16.4503 172.418 16.8907C172.513 17.331 172.56 17.6927 172.56 17.9758C172.56 18.6049 172.308 19.1396 171.805 19.58C171.333 20.0203 170.783 20.2405 170.154 20.2405C169.524 20.2405 168.974 20.0203 168.502 19.58C168.062 19.1082 167.842 18.5577 167.842 17.9286C167.842 17.2367 168.03 16.529 168.408 15.8055C168.817 15.0821 169.367 14.4373 170.059 13.8711C170.783 13.242 171.742 12.7545 172.937 12.4085C174.164 12.0625 175.485 11.8895 176.9 11.8895C178.536 11.8895 179.904 12.1726 181.005 12.7388C182.137 13.2735 183.002 14.0284 183.6 15.0034C183.977 15.6325 184.245 16.3717 184.402 17.2209C184.559 18.0387 184.638 19.1553 184.638 20.5708V31.1392ZM180.297 22.4108C178.662 23.0084 177.262 23.5903 176.098 24.1565C174.966 24.6912 174.038 25.2574 173.315 25.855C172.623 26.4212 172.119 27.0345 171.805 27.695C171.49 28.3556 171.333 29.079 171.333 29.8653V30.1012C171.333 30.6674 171.427 31.2179 171.616 31.7526C171.805 32.2558 172.056 32.6962 172.371 33.0736C172.717 33.4511 173.11 33.7499 173.551 33.9701C173.991 34.1902 174.447 34.3003 174.919 34.3003C175.485 34.3003 176.114 34.1902 176.806 33.9701C177.529 33.7184 178.206 33.4196 178.835 33.0736C179.464 32.7276 179.857 32.3659 180.014 31.9885C180.203 31.611 180.297 31.0134 180.297 30.1956V22.4108Z" fill="black"/>
<path d="M136.316 14.4373C137.794 14.0284 139.068 13.6509 140.137 13.3049C141.238 12.959 142.433 12.5343 143.723 12.0311L144.148 12.1254V16.4189C145.06 15.5696 145.862 14.8619 146.554 14.2957C147.246 13.7296 147.875 13.2892 148.441 12.9747C149.039 12.6287 149.605 12.3928 150.14 12.267C150.706 12.1097 151.303 12.0311 151.932 12.0311C153.914 12.0311 155.471 12.7388 156.603 14.1542C157.736 15.5696 158.302 17.5512 158.302 20.099V32.4603C158.302 33.7499 158.522 34.6306 158.962 35.1024C159.403 35.5742 160.268 35.8887 161.557 36.046V36.8009H150.375V36.046C151.036 35.9831 151.586 35.873 152.027 35.7157C152.467 35.5585 152.813 35.3068 153.065 34.9608C153.348 34.6149 153.537 34.1588 153.631 33.5926C153.725 33.0264 153.772 32.3187 153.772 31.4695V20.1933C153.772 16.7334 152.467 15.0034 149.856 15.0034C149.416 15.0034 148.991 15.0506 148.583 15.145C148.174 15.2393 147.749 15.3966 147.309 15.6168C146.9 15.837 146.444 16.1515 145.94 16.5604C145.469 16.9693 144.902 17.4726 144.242 18.0702V33.2152C144.242 34.1902 144.494 34.8822 144.997 35.2911C145.5 35.6686 146.444 35.9202 147.828 36.046V36.8009H136.41V36.046C137.102 35.9831 137.652 35.8887 138.061 35.7629C138.502 35.6056 138.848 35.3697 139.099 35.0552C139.351 34.7407 139.524 34.3475 139.618 33.8757C139.713 33.3724 139.76 32.7434 139.76 31.9885V18.5892C139.76 17.2681 139.618 16.3717 139.335 15.8999C139.052 15.3966 138.533 15.145 137.778 15.145C137.212 15.145 136.724 15.2236 136.316 15.3809V14.4373Z" fill="black"/>
<path d="M127.672 12.1726V31.3279C127.672 32.303 127.704 33.0893 127.766 33.687C127.861 34.2531 128.05 34.7092 128.333 35.0552C128.616 35.3697 129.009 35.5899 129.512 35.7157C130.047 35.8415 130.77 35.9516 131.682 36.046V36.8009H118.896V36.046C119.84 35.9831 120.579 35.8887 121.114 35.7629C121.68 35.6056 122.105 35.3697 122.388 35.0552C122.702 34.7092 122.907 34.2531 123.001 33.687C123.096 33.0893 123.143 32.303 123.143 31.3279V18.8251C123.143 17.6298 123.001 16.7963 122.718 16.3245C122.466 15.8212 122.026 15.5696 121.397 15.5696C121.145 15.5696 120.847 15.5853 120.501 15.6168C120.186 15.6482 119.856 15.6954 119.51 15.7583L119.132 15.8055V15.0034L127.436 12.0311L127.672 12.1726ZM124.983 0C125.738 0 126.382 0.283084 126.917 0.849251C127.452 1.38396 127.719 2.02877 127.719 2.78366C127.719 3.57 127.452 4.23053 126.917 4.76524C126.414 5.2685 125.753 5.52013 124.936 5.52013C124.149 5.52013 123.504 5.2685 123.001 4.76524C122.498 4.23053 122.246 3.57 122.246 2.78366C122.246 2.02877 122.514 1.38396 123.048 0.849251C123.583 0.283084 124.228 0 124.983 0Z" fill="black"/>
<path d="M114.358 14.2486H108.885V29.7238C108.885 31.4538 109.105 32.6962 109.545 33.4511C109.986 34.1745 110.693 34.5362 111.668 34.5362C112.298 34.5362 112.848 34.4104 113.32 34.1588C113.792 33.8757 114.342 33.3724 114.971 32.649L115.632 33.3095C113.933 35.9831 111.763 37.3199 109.121 37.3199C105.944 37.3199 104.355 35.0395 104.355 30.4787V14.2486H101.525C101.399 14.2171 101.336 14.107 101.336 13.9183C101.336 13.6038 101.635 13.2578 102.232 12.8803C103.648 12.0625 105.393 10.1438 107.469 7.12428C107.627 6.87265 107.8 6.63675 107.988 6.41657C108.209 6.16494 108.397 5.89759 108.555 5.6145C108.68 5.6145 108.759 5.66168 108.79 5.75604C108.853 5.85041 108.885 6.03913 108.885 6.32221V12.5501H114.358V14.2486Z" fill="black"/>
<path d="M93.3529 19.9102C92.7553 17.4883 92.0161 15.7741 91.1354 14.7675C90.2547 13.761 89.0437 13.2578 87.5025 13.2578C86.2444 13.2578 85.2378 13.6038 84.483 14.2957C83.7281 14.9563 83.3506 15.837 83.3506 16.9379C83.3506 18.4791 84.1212 19.7058 85.6625 20.6179L91.4657 24.0621C93.1013 25.0372 94.2651 26.0123 94.957 26.9873C95.649 27.9309 95.995 29.079 95.995 30.4315C95.995 31.3751 95.7906 32.2716 95.3817 33.1208C94.9728 33.9701 94.4223 34.7092 93.7304 35.3383C93.0698 35.9359 92.2835 36.4234 91.3713 36.8009C90.4592 37.1469 89.4841 37.3199 88.4461 37.3199C87.88 37.3199 87.2666 37.2727 86.6061 37.1783C85.9456 37.1154 85.2221 36.9896 84.4358 36.8009C83.8067 36.6436 83.3192 36.5335 82.9732 36.4706C82.6272 36.4077 82.2969 36.3763 81.9824 36.3763C81.6678 36.3763 81.4319 36.4234 81.2747 36.5178C81.1174 36.6122 80.9444 36.7852 80.7557 37.0368H80.048V28.6386H80.8972C81.2118 30.0226 81.5735 31.1864 81.9824 32.13C82.3913 33.0736 82.8631 33.8442 83.3978 34.4419C83.9325 35.0395 84.5616 35.4798 85.285 35.7629C86.0085 36.0145 86.8263 36.1404 87.7384 36.1404C89.1538 36.1404 90.2547 35.7944 91.0411 35.1024C91.8589 34.4104 92.2678 33.4668 92.2678 32.2716C92.2678 30.6674 91.3241 29.3306 89.4369 28.2612L86.323 26.4683C85.1592 25.8078 84.1684 25.1787 83.3506 24.5811C82.5643 23.9835 81.9195 23.3859 81.4162 22.7882C80.913 22.1592 80.5512 21.5144 80.3311 20.8538C80.1109 20.1933 80.0008 19.4856 80.0008 18.7307C80.0008 17.7556 80.1738 16.8592 80.5198 16.0414C80.8972 15.2236 81.4005 14.5159 82.0296 13.9183C82.6901 13.3207 83.4764 12.8646 84.3886 12.5501C85.3007 12.2355 86.3073 12.0782 87.4082 12.0782C88.6663 12.0782 89.8773 12.2984 91.0411 12.7388C91.7016 13.0219 92.2048 13.1634 92.5508 13.1634C92.6767 13.1634 92.771 13.1319 92.8339 13.069C92.8968 13.0061 93.0541 12.8646 93.3057 12.6444L93.3529 12.5501H94.0134L94.2022 19.9102H93.3529Z" fill="black"/>
<path d="M69.4701 12.1726V31.3279C69.4701 32.303 69.5015 33.0893 69.5644 33.687C69.6588 34.2531 69.8475 34.7092 70.1306 35.0552C70.4137 35.3697 70.8069 35.5899 71.3101 35.7157C71.8448 35.8415 72.5683 35.9516 73.4804 36.046V36.8009H60.6945V36.046C61.6381 35.9831 62.3773 35.8887 62.912 35.7629C63.4781 35.6056 63.9028 35.3697 64.1859 35.0552C64.5004 34.7092 64.7048 34.2531 64.7992 33.687C64.8936 33.0893 64.9407 32.303 64.9407 31.3279V18.8251C64.9407 17.6298 64.7992 16.7963 64.5161 16.3245C64.2645 15.8212 63.8241 15.5696 63.1951 15.5696C62.9434 15.5696 62.6446 15.5853 62.2986 15.6168C61.9841 15.6482 61.6538 15.6954 61.3078 15.7583L60.9304 15.8055V15.0034L69.2342 12.0311L69.4701 12.1726ZM66.7808 0C67.5357 0 68.1805 0.283084 68.7152 0.849251C69.2499 1.38396 69.5173 2.02877 69.5173 2.78366C69.5173 3.57 69.2499 4.23053 68.7152 4.76524C68.2119 5.2685 67.5514 5.52013 66.7336 5.52013C65.9473 5.52013 65.3025 5.2685 64.7992 4.76524C64.2959 4.23053 64.0443 3.57 64.0443 2.78366C64.0443 2.02877 64.3117 1.38396 64.8464 0.849251C65.3811 0.283084 66.0259 0 66.7808 0Z" fill="black"/>
<path d="M39.8312 15.0034C40.6176 14.7204 41.341 14.4687 42.0015 14.2486C42.662 13.9969 43.2911 13.761 43.8887 13.5408C44.5178 13.2892 45.1312 13.0533 45.7288 12.8331C46.3579 12.5815 47.0341 12.3142 47.7576 12.0311L48.0878 12.1254V17.0794C48.7483 16.1043 49.346 15.3023 49.8807 14.6732C50.4154 14.0127 50.9344 13.4937 51.4376 13.1162C51.9409 12.7073 52.4284 12.4242 52.9002 12.267C53.4035 12.1097 53.9382 12.0311 54.5044 12.0311C55.4165 12.0311 56.14 12.2984 56.6747 12.8331C57.2094 13.3364 57.4768 14.0127 57.4768 14.8619C57.4768 15.6482 57.288 16.2616 56.9106 16.7019C56.5331 17.1108 56.0299 17.3153 55.4008 17.3153C55.0548 17.3153 54.7088 17.2524 54.3628 17.1266C54.0483 16.9693 53.6709 16.6705 53.2305 16.2301C52.9474 15.9785 52.6801 15.7898 52.4284 15.664C52.1768 15.5382 51.9724 15.4753 51.8151 15.4753C51.4376 15.4753 51.0287 15.6325 50.5884 15.9471C50.1795 16.2301 49.7863 16.5919 49.4089 17.0322C49.0314 17.4726 48.7169 17.9444 48.4653 18.4476C48.2136 18.9509 48.0878 19.4227 48.0878 19.863V31.9885C48.0878 32.7434 48.1507 33.3724 48.2765 33.8757C48.4024 34.379 48.6383 34.7879 48.9842 35.1024C49.3302 35.3855 49.802 35.6056 50.3997 35.7629C50.9973 35.9202 51.7522 36.0145 52.6643 36.046V36.8009H39.6897V36.046C40.5389 35.8887 41.2152 35.7315 41.7184 35.5742C42.2531 35.3855 42.6463 35.1653 42.8979 34.9137C43.181 34.662 43.354 34.3318 43.4169 33.9229C43.5113 33.4825 43.5585 32.9321 43.5585 32.2716V18.8251C43.5585 17.6298 43.4169 16.7963 43.1339 16.3245C42.8508 15.8212 42.379 15.5696 41.7184 15.5696C41.3724 15.5696 41.0579 15.5853 40.7748 15.6168C40.5232 15.6482 40.2087 15.7112 39.8312 15.8055V15.0034Z" fill="black"/>
<path d="M20.3834 1.13232H34.4904V2.21748C33.5782 2.28039 32.8076 2.37475 32.1785 2.50056C31.5494 2.59492 30.9518 2.78365 30.3857 3.06673C29.8195 3.34981 29.2219 3.75871 28.5928 4.29343C27.9952 4.79669 27.2403 5.48867 26.3281 6.36937L16.1371 16.5132L28.64 29.9597C29.8667 31.2807 30.8575 32.3187 31.6124 33.0736C32.3987 33.8285 33.075 34.4104 33.6411 34.8193C34.2387 35.2282 34.7892 35.4955 35.2924 35.6214C35.7957 35.7157 36.3933 35.7786 37.0853 35.8101V36.8009H20.7136V35.8101L22.1762 35.7157C23.686 35.6843 24.4409 35.2911 24.4409 34.5362C24.4409 34.2217 24.2679 33.7656 23.9219 33.168C23.5759 32.5703 23.0884 31.8784 22.4593 31.092C21.8617 30.2742 21.1225 29.3778 20.2418 28.4027C19.3926 27.4277 18.449 26.4211 17.411 25.3832L11.7021 19.7215L10.3339 20.8538V30.9977C10.3339 31.9727 10.3811 32.7591 10.4754 33.3567C10.6013 33.9543 10.8214 34.4261 11.136 34.7721C11.482 35.1181 11.9695 35.3697 12.5986 35.527C13.2591 35.6528 14.1083 35.7472 15.1463 35.8101V36.8009H0.00134277V35.8101C1.07077 35.7472 1.92002 35.6371 2.5491 35.4798C3.17817 35.3225 3.64998 35.0552 3.96451 34.6777C4.31051 34.2688 4.53068 33.7341 4.62504 33.0736C4.75086 32.3816 4.81377 31.4695 4.81377 30.3371V7.0299C4.81377 6.08629 4.75086 5.31567 4.62504 4.71805C4.53068 4.12043 4.31051 3.64862 3.96451 3.30263C3.61852 2.95664 3.13099 2.70501 2.50192 2.54774C1.87284 2.39047 1.03932 2.28039 0.00134277 2.21748V1.13232H15.2879V2.21748C14.187 2.28039 13.3063 2.39047 12.6457 2.54774C12.0167 2.67356 11.5291 2.90946 11.1831 3.25545C10.8372 3.60144 10.6013 4.07325 10.4754 4.67087C10.3811 5.26849 10.3339 6.05484 10.3339 7.0299V18.0702L19.8644 9.38893C21.3742 8.00497 22.4436 6.88836 23.0727 6.03911C23.7332 5.18986 24.0635 4.46642 24.0635 3.8688C24.0635 3.33409 23.8905 2.94091 23.5445 2.68928C23.2299 2.43765 22.648 2.28039 21.7988 2.21748H20.3834V1.13232Z" fill="black"/>
<path d="M0 59.5577H161.333" stroke="black"/>
<rect x="177.333" y="59.5577" width="5.65954" height="5.65954" transform="rotate(-45 177.333 59.5577)" fill="black"/>
<path d="M201.337 59.5577H362.671" stroke="black"/>
<path d="M362.388 96.3408C361.638 98.2992 360.618 99.7783 359.326 100.778C358.055 101.778 356.555 102.278 354.826 102.278C353.805 102.278 352.878 102.091 352.045 101.716C351.232 101.341 350.534 100.81 349.951 100.122C349.368 99.4346 348.92 98.6012 348.607 97.6221C348.295 96.6429 348.138 95.5387 348.138 94.3096C348.138 92.9971 348.316 91.7992 348.67 90.7158C349.045 89.6325 349.555 88.7054 350.201 87.9346C350.868 87.1429 351.659 86.5283 352.576 86.0908C353.493 85.6533 354.503 85.4346 355.607 85.4346C356.545 85.4346 357.399 85.6117 358.17 85.9658C358.961 86.32 359.628 86.82 360.17 87.4658C360.399 87.7575 360.586 88.0492 360.732 88.3408C360.899 88.6325 361.034 88.9554 361.138 89.3096C361.263 89.6637 361.368 90.0596 361.451 90.4971C361.534 90.9346 361.618 91.4346 361.701 91.9971H350.732C350.774 93.1429 350.868 94.0908 351.013 94.8408C351.18 95.57 351.441 96.2783 351.795 96.9658C352.816 98.8825 354.316 99.8408 356.295 99.8408C357.441 99.8408 358.43 99.5596 359.263 98.9971C360.118 98.4346 360.972 97.4762 361.826 96.1221L362.388 96.3408ZM358.076 90.8096C357.847 89.2679 357.472 88.2054 356.951 87.6221C356.451 87.0179 355.659 86.7158 354.576 86.7158C353.472 86.7158 352.607 87.0387 351.982 87.6846C351.378 88.3304 350.982 89.3721 350.795 90.8096H358.076Z" fill="black"/>
<path d="M334.007 87.4971C334.528 87.3096 335.007 87.1429 335.445 86.9971C335.882 86.8304 336.299 86.6742 336.695 86.5283C337.111 86.3617 337.518 86.2054 337.913 86.0596C338.33 85.8929 338.778 85.7158 339.257 85.5283L339.476 85.5908V88.8721C339.913 88.2262 340.309 87.695 340.663 87.2783C341.018 86.8408 341.361 86.4971 341.695 86.2471C342.028 85.9762 342.351 85.7887 342.663 85.6846C342.997 85.5804 343.351 85.5283 343.726 85.5283C344.33 85.5283 344.809 85.7054 345.163 86.0596C345.518 86.3929 345.695 86.8408 345.695 87.4033C345.695 87.9242 345.57 88.3304 345.32 88.6221C345.07 88.8929 344.736 89.0283 344.32 89.0283C344.091 89.0283 343.861 88.9867 343.632 88.9033C343.424 88.7992 343.174 88.6012 342.882 88.3096C342.695 88.1429 342.518 88.0179 342.351 87.9346C342.184 87.8512 342.049 87.8096 341.945 87.8096C341.695 87.8096 341.424 87.9137 341.132 88.1221C340.861 88.3096 340.601 88.5492 340.351 88.8408C340.101 89.1325 339.893 89.445 339.726 89.7783C339.559 90.1117 339.476 90.4242 339.476 90.7158V98.7471C339.476 99.2471 339.518 99.6637 339.601 99.9971C339.684 100.33 339.841 100.601 340.07 100.81C340.299 100.997 340.611 101.143 341.007 101.247C341.403 101.351 341.903 101.414 342.507 101.435V101.935H333.913V101.435C334.476 101.33 334.924 101.226 335.257 101.122C335.611 100.997 335.872 100.851 336.038 100.685C336.226 100.518 336.341 100.299 336.382 100.028C336.445 99.7367 336.476 99.3721 336.476 98.9346V90.0283C336.476 89.2367 336.382 88.6846 336.195 88.3721C336.007 88.0387 335.695 87.8721 335.257 87.8721C335.028 87.8721 334.82 87.8825 334.632 87.9033C334.466 87.9242 334.257 87.9658 334.007 88.0283V87.4971Z" fill="black"/>
<path d="M329.438 98.1846C329.438 98.9762 329.511 99.5283 329.657 99.8408C329.803 100.132 330.084 100.278 330.501 100.278C330.98 100.278 331.501 100.06 332.063 99.6221V100.528C331.459 101.195 330.928 101.653 330.47 101.903C330.011 102.153 329.48 102.278 328.876 102.278C328.147 102.278 327.605 102.08 327.251 101.685C326.918 101.268 326.709 100.58 326.626 99.6221C325.543 100.56 324.595 101.237 323.782 101.653C322.97 102.07 322.178 102.278 321.407 102.278C320.282 102.278 319.366 101.924 318.657 101.216C317.97 100.507 317.626 99.5908 317.626 98.4658C317.626 97.9033 317.73 97.3408 317.938 96.7783C318.168 96.195 318.491 95.7262 318.907 95.3721C319.282 95.0387 319.626 94.7575 319.938 94.5283C320.272 94.2783 320.699 94.0283 321.22 93.7783C321.741 93.5075 322.418 93.2054 323.251 92.8721C324.084 92.5387 325.188 92.0908 326.563 91.5283V89.2471C326.563 88.2679 326.324 87.5283 325.845 87.0283C325.386 86.5283 324.72 86.2783 323.845 86.2783C323.116 86.2783 322.501 86.4554 322.001 86.8096C321.522 87.1429 321.282 87.5492 321.282 88.0283C321.282 88.2158 321.303 88.4554 321.345 88.7471C321.407 89.0387 321.438 89.2783 321.438 89.4658C321.438 89.8825 321.272 90.2367 320.938 90.5283C320.626 90.82 320.261 90.9658 319.845 90.9658C319.428 90.9658 319.063 90.82 318.751 90.5283C318.459 90.2158 318.313 89.8512 318.313 89.4346C318.313 88.9762 318.438 88.5075 318.688 88.0283C318.959 87.5492 319.324 87.1221 319.782 86.7471C320.261 86.3304 320.897 86.0075 321.688 85.7783C322.501 85.5492 323.376 85.4346 324.313 85.4346C325.397 85.4346 326.303 85.6221 327.032 85.9971C327.782 86.3512 328.355 86.8512 328.751 87.4971C329.001 87.9137 329.178 88.4033 329.282 88.9658C329.386 89.5075 329.438 90.2471 329.438 91.1846V98.1846ZM326.563 92.4033C325.48 92.7992 324.553 93.1846 323.782 93.5596C323.032 93.9137 322.418 94.2887 321.938 94.6846C321.48 95.0596 321.147 95.4658 320.938 95.9033C320.73 96.3408 320.626 96.82 320.626 97.3408V97.4971C320.626 97.8721 320.688 98.2367 320.813 98.5908C320.938 98.9242 321.105 99.2158 321.313 99.4658C321.543 99.7158 321.803 99.9137 322.095 100.06C322.386 100.205 322.688 100.278 323.001 100.278C323.376 100.278 323.793 100.205 324.251 100.06C324.73 99.8929 325.178 99.695 325.595 99.4658C326.011 99.2367 326.272 98.9971 326.376 98.7471C326.501 98.4971 326.563 98.1012 326.563 97.5596V92.4033Z" fill="black"/>
<path d="M311.495 90.7471C311.099 89.1429 310.609 88.0075 310.026 87.3408C309.443 86.6742 308.641 86.3408 307.62 86.3408C306.786 86.3408 306.12 86.57 305.62 87.0283C305.12 87.4658 304.87 88.0492 304.87 88.7783C304.87 89.7992 305.38 90.6117 306.401 91.2158L310.245 93.4971C311.328 94.1429 312.099 94.7887 312.557 95.4346C313.016 96.0596 313.245 96.82 313.245 97.7158C313.245 98.3408 313.109 98.9346 312.839 99.4971C312.568 100.06 312.203 100.549 311.745 100.966C311.307 101.362 310.786 101.685 310.182 101.935C309.578 102.164 308.932 102.278 308.245 102.278C307.87 102.278 307.464 102.247 307.026 102.185C306.589 102.143 306.109 102.06 305.589 101.935C305.172 101.83 304.849 101.757 304.62 101.716C304.391 101.674 304.172 101.653 303.964 101.653C303.755 101.653 303.599 101.685 303.495 101.747C303.391 101.81 303.276 101.924 303.151 102.091H302.682V96.5283H303.245C303.453 97.445 303.693 98.2158 303.964 98.8408C304.234 99.4658 304.547 99.9762 304.901 100.372C305.255 100.768 305.672 101.06 306.151 101.247C306.63 101.414 307.172 101.497 307.776 101.497C308.714 101.497 309.443 101.268 309.964 100.81C310.505 100.351 310.776 99.7262 310.776 98.9346C310.776 97.8721 310.151 96.9867 308.901 96.2783L306.839 95.0908C306.068 94.6533 305.411 94.2367 304.87 93.8408C304.349 93.445 303.922 93.0492 303.589 92.6533C303.255 92.2367 303.016 91.8096 302.87 91.3721C302.724 90.9346 302.651 90.4658 302.651 89.9658C302.651 89.32 302.766 88.7262 302.995 88.1846C303.245 87.6429 303.578 87.1742 303.995 86.7783C304.432 86.3825 304.953 86.0804 305.557 85.8721C306.161 85.6637 306.828 85.5596 307.557 85.5596C308.391 85.5596 309.193 85.7054 309.964 85.9971C310.401 86.1846 310.734 86.2783 310.964 86.2783C311.047 86.2783 311.109 86.2575 311.151 86.2158C311.193 86.1742 311.297 86.0804 311.464 85.9346L311.495 85.8721H311.932L312.057 90.7471H311.495Z" fill="black"/>
<path d="M299.145 100.528C298.541 101.195 298.009 101.653 297.551 101.903C297.093 102.153 296.561 102.278 295.957 102.278C295.228 102.278 294.686 102.091 294.332 101.716C293.978 101.32 293.759 100.643 293.676 99.6846C292.593 100.622 291.645 101.289 290.832 101.685C290.041 102.08 289.259 102.278 288.488 102.278C287.363 102.278 286.447 101.924 285.738 101.216C285.051 100.507 284.707 99.5908 284.707 98.4658C284.707 97.9033 284.822 97.3408 285.051 96.7783C285.28 96.2158 285.593 95.7471 285.988 95.3721C286.363 95.0387 286.718 94.7575 287.051 94.5283C287.384 94.2783 287.801 94.0283 288.301 93.7783C288.822 93.5283 289.499 93.2367 290.332 92.9033C291.166 92.5492 292.27 92.0908 293.645 91.5283V89.3408C293.645 88.3617 293.405 87.6221 292.926 87.1221C292.468 86.6221 291.801 86.3721 290.926 86.3721C290.197 86.3721 289.582 86.5492 289.082 86.9033C288.603 87.2367 288.363 87.6429 288.363 88.1221C288.363 88.4137 288.405 88.695 288.488 88.9658C288.488 89.1117 288.488 89.2262 288.488 89.3096C288.509 89.3929 288.52 89.4762 288.52 89.5596C288.52 89.9762 288.353 90.3304 288.02 90.6221C287.707 90.9137 287.343 91.0596 286.926 91.0596C286.509 91.0596 286.145 90.9137 285.832 90.6221C285.541 90.3096 285.395 89.945 285.395 89.5283C285.395 89.07 285.52 88.6012 285.77 88.1221C286.041 87.6429 286.405 87.2158 286.863 86.8408C287.343 86.4242 287.978 86.1012 288.77 85.8721C289.582 85.6429 290.457 85.5283 291.395 85.5283C292.478 85.5283 293.395 85.7054 294.145 86.0596C294.895 86.4137 295.457 86.9242 295.832 87.5908C296.103 88.0075 296.28 88.4971 296.363 89.0596C296.468 89.6012 296.52 90.3408 296.52 91.2783V98.1846C296.52 98.9762 296.593 99.5283 296.738 99.8408C296.884 100.132 297.166 100.278 297.582 100.278C298.061 100.278 298.582 100.06 299.145 99.6221V100.528ZM293.645 92.3721C292.561 92.7679 291.645 93.1533 290.895 93.5283C290.166 93.8825 289.572 94.2575 289.113 94.6533C288.655 95.0492 288.322 95.4658 288.113 95.9033C287.926 96.3408 287.832 96.82 287.832 97.3408V97.4971C287.832 98.2679 288.051 98.9242 288.488 99.4658C288.926 99.9867 289.457 100.247 290.082 100.247C290.457 100.247 290.874 100.174 291.332 100.028C291.811 99.8825 292.259 99.695 292.676 99.4658C293.093 99.2367 293.353 98.9971 293.457 98.7471C293.582 98.4971 293.645 98.1012 293.645 97.5596V92.3721ZM287.77 79.7783C288.249 79.7783 288.666 79.9554 289.02 80.3096C289.374 80.6429 289.551 81.0492 289.551 81.5283C289.551 82.0075 289.374 82.4242 289.02 82.7783C288.666 83.1117 288.238 83.2783 287.738 83.2783C287.259 83.2783 286.853 83.1117 286.52 82.7783C286.186 82.4242 286.02 81.9971 286.02 81.4971C286.02 81.0179 286.186 80.6117 286.52 80.2783C286.874 79.945 287.291 79.7783 287.77 79.7783ZM294.863 79.7783C295.343 79.7783 295.759 79.9554 296.113 80.3096C296.488 80.6429 296.676 81.0492 296.676 81.5283C296.676 82.0075 296.488 82.4242 296.113 82.7783C295.759 83.1117 295.322 83.2783 294.801 83.2783C294.322 83.2783 293.916 83.1117 293.582 82.7783C293.27 82.4242 293.113 81.9971 293.113 81.4971C293.113 81.0179 293.28 80.6117 293.613 80.2783C293.968 79.945 294.384 79.7783 294.863 79.7783Z" fill="black"/>
<path d="M272.513 79.1221C273.138 78.9762 273.691 78.8512 274.17 78.7471C274.67 78.6221 275.138 78.4971 275.576 78.3721C276.034 78.2471 276.472 78.1221 276.888 77.9971C277.305 77.8721 277.743 77.7262 278.201 77.5596L278.357 77.6533V98.9346C278.357 99.4346 278.388 99.8408 278.451 100.153C278.513 100.445 278.638 100.685 278.826 100.872C279.013 101.039 279.274 101.164 279.607 101.247C279.961 101.33 280.42 101.393 280.982 101.435V101.935H272.607V101.435C273.17 101.372 273.628 101.299 273.982 101.216C274.336 101.112 274.618 100.966 274.826 100.778C275.034 100.57 275.17 100.31 275.232 99.9971C275.316 99.6846 275.357 99.2887 275.357 98.8096V81.8096C275.357 80.9762 275.243 80.4137 275.013 80.1221C274.805 79.8096 274.42 79.6533 273.857 79.6533C273.691 79.6533 273.503 79.6637 273.295 79.6846C273.107 79.6846 272.92 79.695 272.732 79.7158H272.513V79.1221Z" fill="black"/>
<path d="M269.538 96.3408C268.788 98.2992 267.768 99.7783 266.476 100.778C265.205 101.778 263.705 102.278 261.976 102.278C260.955 102.278 260.028 102.091 259.195 101.716C258.382 101.341 257.684 100.81 257.101 100.122C256.518 99.4346 256.07 98.6012 255.757 97.6221C255.445 96.6429 255.288 95.5387 255.288 94.3096C255.288 92.9971 255.466 91.7992 255.82 90.7158C256.195 89.6325 256.705 88.7054 257.351 87.9346C258.018 87.1429 258.809 86.5283 259.726 86.0908C260.643 85.6533 261.653 85.4346 262.757 85.4346C263.695 85.4346 264.549 85.6117 265.32 85.9658C266.111 86.32 266.778 86.82 267.32 87.4658C267.549 87.7575 267.736 88.0492 267.882 88.3408C268.049 88.6325 268.184 88.9554 268.288 89.3096C268.413 89.6637 268.518 90.0596 268.601 90.4971C268.684 90.9346 268.768 91.4346 268.851 91.9971H257.882C257.924 93.1429 258.018 94.0908 258.163 94.8408C258.33 95.57 258.591 96.2783 258.945 96.9658C259.966 98.8825 261.466 99.8408 263.445 99.8408C264.591 99.8408 265.58 99.5596 266.413 98.9971C267.268 98.4346 268.122 97.4762 268.976 96.1221L269.538 96.3408ZM265.226 90.8096C264.997 89.2679 264.622 88.2054 264.101 87.6221C263.601 87.0179 262.809 86.7158 261.726 86.7158C260.622 86.7158 259.757 87.0387 259.132 87.6846C258.528 88.3304 258.132 89.3721 257.945 90.8096H265.226Z" fill="black"/>
<path d="M241.157 87.4971C241.678 87.3096 242.157 87.1429 242.595 86.9971C243.032 86.8304 243.449 86.6742 243.845 86.5283C244.261 86.3617 244.668 86.2054 245.063 86.0596C245.48 85.8929 245.928 85.7158 246.407 85.5283L246.626 85.5908V88.8721C247.063 88.2262 247.459 87.695 247.813 87.2783C248.168 86.8408 248.511 86.4971 248.845 86.2471C249.178 85.9762 249.501 85.7887 249.813 85.6846C250.147 85.5804 250.501 85.5283 250.876 85.5283C251.48 85.5283 251.959 85.7054 252.313 86.0596C252.668 86.3929 252.845 86.8408 252.845 87.4033C252.845 87.9242 252.72 88.3304 252.47 88.6221C252.22 88.8929 251.886 89.0283 251.47 89.0283C251.241 89.0283 251.011 88.9867 250.782 88.9033C250.574 88.7992 250.324 88.6012 250.032 88.3096C249.845 88.1429 249.668 88.0179 249.501 87.9346C249.334 87.8512 249.199 87.8096 249.095 87.8096C248.845 87.8096 248.574 87.9137 248.282 88.1221C248.011 88.3096 247.751 88.5492 247.501 88.8408C247.251 89.1325 247.043 89.445 246.876 89.7783C246.709 90.1117 246.626 90.4242 246.626 90.7158V98.7471C246.626 99.2471 246.668 99.6637 246.751 99.9971C246.834 100.33 246.991 100.601 247.22 100.81C247.449 100.997 247.761 101.143 248.157 101.247C248.553 101.351 249.053 101.414 249.657 101.435V101.935H241.063V101.435C241.626 101.33 242.074 101.226 242.407 101.122C242.761 100.997 243.022 100.851 243.188 100.685C243.376 100.518 243.491 100.299 243.532 100.028C243.595 99.7367 243.626 99.3721 243.626 98.9346V90.0283C243.626 89.2367 243.532 88.6846 243.345 88.3721C243.157 88.0387 242.845 87.8721 242.407 87.8721C242.178 87.8721 241.97 87.8825 241.782 87.9033C241.616 87.9242 241.407 87.9658 241.157 88.0283V87.4971Z" fill="black"/>
<path d="M230.37 85.5283C231.516 85.5283 232.568 85.7262 233.526 86.1221C234.484 86.5179 235.307 87.0804 235.995 87.8096C236.703 88.5179 237.255 89.3617 237.651 90.3408C238.047 91.32 238.245 92.4033 238.245 93.5908C238.245 94.8408 238.036 95.9971 237.62 97.0596C237.224 98.1012 236.672 99.0179 235.964 99.8096C235.255 100.58 234.411 101.185 233.432 101.622C232.474 102.06 231.432 102.278 230.307 102.278C229.182 102.278 228.141 102.07 227.182 101.653C226.224 101.237 225.401 100.653 224.714 99.9033C224.026 99.1533 223.484 98.2679 223.089 97.2471C222.693 96.2262 222.495 95.1117 222.495 93.9033C222.495 92.6742 222.682 91.5492 223.057 90.5283C223.453 89.4867 223.995 88.6012 224.682 87.8721C225.37 87.1221 226.193 86.5492 227.151 86.1533C228.13 85.7367 229.203 85.5283 230.37 85.5283ZM229.839 86.5283C228.589 86.5283 227.589 87.0387 226.839 88.0596C226.089 89.0804 225.714 90.4346 225.714 92.1221C225.714 93.3929 225.849 94.6325 226.12 95.8408C226.391 97.0283 226.776 98.0908 227.276 99.0283C227.651 99.7575 228.151 100.32 228.776 100.716C229.401 101.112 230.078 101.31 230.807 101.31C232.12 101.31 233.141 100.737 233.87 99.5908C234.62 98.4242 234.995 96.8304 234.995 94.8096C234.995 93.2887 234.776 91.8721 234.339 90.5596C233.901 89.2471 233.307 88.2575 232.557 87.5908C232.161 87.2158 231.745 86.945 231.307 86.7783C230.87 86.6117 230.38 86.5283 229.839 86.5283ZM226.807 79.7783C227.307 79.7783 227.734 79.9554 228.089 80.3096C228.443 80.6429 228.62 81.0492 228.62 81.5283C228.62 82.0075 228.443 82.4242 228.089 82.7783C227.734 83.1117 227.307 83.2783 226.807 83.2783C226.328 83.2783 225.922 83.1117 225.589 82.7783C225.255 82.4242 225.089 81.9971 225.089 81.4971C225.089 81.0179 225.255 80.6117 225.589 80.2783C225.922 79.945 226.328 79.7783 226.807 79.7783ZM233.932 79.7783C234.411 79.7783 234.828 79.9554 235.182 80.3096C235.536 80.6429 235.714 81.0492 235.714 81.5283C235.714 82.0075 235.536 82.4242 235.182 82.7783C234.828 83.1117 234.401 83.2783 233.901 83.2783C233.422 83.2783 233.016 83.1117 232.682 82.7783C232.349 82.4242 232.182 81.9971 232.182 81.4971C232.182 81.0179 232.349 80.6117 232.682 80.2783C233.036 79.945 233.453 79.7783 233.932 79.7783Z" fill="black"/>
<path d="M218.988 86.9971H214.613V98.2471C214.613 98.9137 214.645 99.4554 214.707 99.8721C214.791 100.268 214.947 100.58 215.176 100.81C215.405 101.018 215.738 101.174 216.176 101.278C216.613 101.362 217.197 101.414 217.926 101.435V101.935H208.676V101.435C209.322 101.393 209.832 101.33 210.207 101.247C210.603 101.143 210.905 100.976 211.113 100.747C211.322 100.518 211.457 100.205 211.52 99.8096C211.582 99.4137 211.613 98.8929 211.613 98.2471V86.9971H208.707V85.8096H211.613C211.613 85.1012 211.634 84.4867 211.676 83.9658C211.738 83.4242 211.811 82.945 211.895 82.5283C211.999 82.0908 212.124 81.6846 212.27 81.3096C212.436 80.9346 212.634 80.5492 212.863 80.1533C213.322 79.3617 213.988 78.7367 214.863 78.2783C215.759 77.7992 216.77 77.5596 217.895 77.5596C218.978 77.5596 219.863 77.7679 220.551 78.1846C221.259 78.6012 221.613 79.1325 221.613 79.7783C221.613 80.195 221.468 80.5492 221.176 80.8408C220.905 81.1325 220.551 81.2783 220.113 81.2783C219.822 81.2783 219.551 81.1846 219.301 80.9971C219.051 80.7887 218.791 80.445 218.52 79.9658C218.207 79.445 217.905 79.0908 217.613 78.9033C217.343 78.695 217.009 78.5908 216.613 78.5908C215.259 78.5908 214.582 79.6429 214.582 81.7471V85.8096H218.988V86.9971Z" fill="black"/>
<path d="M192.976 87.4971C192.538 87.5596 192.153 87.6325 191.82 87.7158C191.507 87.7992 191.226 87.9242 190.976 88.0908C190.726 88.2367 190.486 88.4346 190.257 88.6846C190.049 88.9346 189.841 89.2471 189.632 89.6221L188.695 91.2783C188.424 91.7575 188.153 92.2054 187.882 92.6221C187.632 93.0179 187.372 93.4242 187.101 93.8408C186.83 94.2575 186.538 94.695 186.226 95.1533C185.913 95.5908 185.559 96.07 185.163 96.5908C186.809 98.7783 188.632 99.8721 190.632 99.8721C191.278 99.8721 191.83 99.7367 192.288 99.4658C192.768 99.195 193.288 98.7054 193.851 97.9971L194.382 98.4033C193.841 99.6533 193.091 100.632 192.132 101.341C191.195 102.049 190.153 102.403 189.007 102.403C187.966 102.403 186.976 102.153 186.038 101.653C185.101 101.153 184.07 100.32 182.945 99.1533C182.278 99.7367 181.632 100.237 181.007 100.653C180.382 101.07 179.757 101.414 179.132 101.685C178.528 101.935 177.903 102.112 177.257 102.216C176.611 102.341 175.934 102.403 175.226 102.403C173.309 102.403 171.809 101.924 170.726 100.966C169.663 100.007 169.132 98.6742 169.132 96.9658C169.132 95.4658 169.591 94.0908 170.507 92.8408C171.424 91.57 172.83 90.3929 174.726 89.3096L176.07 88.4971C175.82 87.8096 175.611 87.2262 175.445 86.7471C175.299 86.2471 175.174 85.7992 175.07 85.4033C174.986 85.0075 174.924 84.6429 174.882 84.3096C174.861 83.9554 174.851 83.6012 174.851 83.2471C174.851 82.4971 174.986 81.7992 175.257 81.1533C175.549 80.4867 175.945 79.9137 176.445 79.4346C176.945 78.9346 177.528 78.5492 178.195 78.2783C178.861 77.9867 179.57 77.8408 180.32 77.8408C181.028 77.8408 181.674 77.945 182.257 78.1533C182.861 78.3617 183.372 78.6637 183.788 79.0596C184.226 79.4346 184.559 79.8825 184.788 80.4033C185.038 80.9242 185.163 81.4971 185.163 82.1221C185.163 82.7679 185.059 83.3617 184.851 83.9033C184.663 84.445 184.351 84.9554 183.913 85.4346C183.476 85.9137 182.903 86.3825 182.195 86.8408C181.486 87.2992 180.622 87.7679 179.601 88.2471C179.997 89.0179 180.372 89.7158 180.726 90.3408C181.08 90.9658 181.434 91.57 181.788 92.1533C182.163 92.7158 182.549 93.2783 182.945 93.8408C183.361 94.3825 183.82 94.9658 184.32 95.5908C185.486 94.07 186.32 92.8096 186.82 91.8096C187.32 90.7887 187.57 89.8825 187.57 89.0908C187.57 88.57 187.403 88.2054 187.07 87.9971C186.757 87.7679 186.153 87.6012 185.257 87.4971V86.7471H192.976V87.4971ZM179.038 87.0908C180.476 86.3408 181.538 85.5596 182.226 84.7471C182.913 83.9137 183.257 82.9971 183.257 81.9971C183.257 81.1221 182.986 80.4033 182.445 79.8408C181.903 79.2575 181.216 78.9658 180.382 78.9658C179.591 78.9658 178.934 79.2367 178.413 79.7783C177.893 80.2992 177.632 80.9867 177.632 81.8408C177.632 82.2575 177.653 82.6637 177.695 83.0596C177.736 83.4346 177.809 83.8304 177.913 84.2471C178.038 84.6429 178.184 85.0804 178.351 85.5596C178.538 86.0179 178.768 86.5283 179.038 87.0908ZM176.601 89.7158C175.83 90.2158 175.174 90.695 174.632 91.1533C174.091 91.5908 173.653 92.0387 173.32 92.4971C172.986 92.9554 172.747 93.4346 172.601 93.9346C172.455 94.4346 172.382 94.9658 172.382 95.5283C172.382 96.2158 172.497 96.8721 172.726 97.4971C172.976 98.1012 173.309 98.6325 173.726 99.0908C174.163 99.5492 174.663 99.9137 175.226 100.185C175.788 100.435 176.382 100.56 177.007 100.56C177.778 100.56 178.538 100.382 179.288 100.028C180.059 99.6533 180.976 99.0596 182.038 98.2471C181.538 97.6221 181.07 97.0179 180.632 96.4346C180.195 95.8512 179.768 95.2367 179.351 94.5908C178.934 93.9242 178.497 93.2054 178.038 92.4346C177.601 91.6429 177.122 90.7367 176.601 89.7158Z" fill="black"/>
<path d="M154.338 96.3408C153.588 98.2992 152.568 99.7783 151.276 100.778C150.005 101.778 148.505 102.278 146.776 102.278C145.755 102.278 144.828 102.091 143.995 101.716C143.182 101.341 142.484 100.81 141.901 100.122C141.318 99.4346 140.87 98.6012 140.557 97.6221C140.245 96.6429 140.088 95.5387 140.088 94.3096C140.088 92.9971 140.266 91.7992 140.62 90.7158C140.995 89.6325 141.505 88.7054 142.151 87.9346C142.818 87.1429 143.609 86.5283 144.526 86.0908C145.443 85.6533 146.453 85.4346 147.557 85.4346C148.495 85.4346 149.349 85.6117 150.12 85.9658C150.911 86.32 151.578 86.82 152.12 87.4658C152.349 87.7575 152.536 88.0492 152.682 88.3408C152.849 88.6325 152.984 88.9554 153.088 89.3096C153.213 89.6637 153.318 90.0596 153.401 90.4971C153.484 90.9346 153.568 91.4346 153.651 91.9971H142.682C142.724 93.1429 142.818 94.0908 142.963 94.8408C143.13 95.57 143.391 96.2783 143.745 96.9658C144.766 98.8825 146.266 99.8408 148.245 99.8408C149.391 99.8408 150.38 99.5596 151.213 98.9971C152.068 98.4346 152.922 97.4762 153.776 96.1221L154.338 96.3408ZM150.026 90.8096C149.797 89.2679 149.422 88.2054 148.901 87.6221C148.401 87.0179 147.609 86.7158 146.526 86.7158C145.422 86.7158 144.557 87.0387 143.932 87.6846C143.328 88.3304 142.932 89.3721 142.745 90.8096H150.026Z" fill="black"/>
<path d="M125.957 87.4971C126.478 87.3096 126.957 87.1429 127.395 86.9971C127.832 86.8304 128.249 86.6742 128.645 86.5283C129.061 86.3617 129.468 86.2054 129.863 86.0596C130.28 85.8929 130.728 85.7158 131.207 85.5283L131.426 85.5908V88.8721C131.863 88.2262 132.259 87.695 132.613 87.2783C132.968 86.8408 133.311 86.4971 133.645 86.2471C133.978 85.9762 134.301 85.7887 134.613 85.6846C134.947 85.5804 135.301 85.5283 135.676 85.5283C136.28 85.5283 136.759 85.7054 137.113 86.0596C137.468 86.3929 137.645 86.8408 137.645 87.4033C137.645 87.9242 137.52 88.3304 137.27 88.6221C137.02 88.8929 136.686 89.0283 136.27 89.0283C136.041 89.0283 135.811 88.9867 135.582 88.9033C135.374 88.7992 135.124 88.6012 134.832 88.3096C134.645 88.1429 134.468 88.0179 134.301 87.9346C134.134 87.8512 133.999 87.8096 133.895 87.8096C133.645 87.8096 133.374 87.9137 133.082 88.1221C132.811 88.3096 132.551 88.5492 132.301 88.8408C132.051 89.1325 131.843 89.445 131.676 89.7783C131.509 90.1117 131.426 90.4242 131.426 90.7158V98.7471C131.426 99.2471 131.468 99.6637 131.551 99.9971C131.634 100.33 131.791 100.601 132.02 100.81C132.249 100.997 132.561 101.143 132.957 101.247C133.353 101.351 133.853 101.414 134.457 101.435V101.935H125.863V101.435C126.426 101.33 126.874 101.226 127.207 101.122C127.561 100.997 127.822 100.851 127.988 100.685C128.176 100.518 128.291 100.299 128.332 100.028C128.395 99.7367 128.426 99.3721 128.426 98.9346V90.0283C128.426 89.2367 128.332 88.6846 128.145 88.3721C127.957 88.0387 127.645 87.8721 127.207 87.8721C126.978 87.8721 126.77 87.8825 126.582 87.9033C126.416 87.9242 126.207 87.9658 125.957 88.0283V87.4971Z" fill="black"/>
<path d="M121.388 98.1846C121.388 98.9762 121.461 99.5283 121.607 99.8408C121.753 100.132 122.034 100.278 122.451 100.278C122.93 100.278 123.451 100.06 124.013 99.6221V100.528C123.409 101.195 122.878 101.653 122.42 101.903C121.961 102.153 121.43 102.278 120.826 102.278C120.097 102.278 119.555 102.08 119.201 101.685C118.868 101.268 118.659 100.58 118.576 99.6221C117.493 100.56 116.545 101.237 115.732 101.653C114.92 102.07 114.128 102.278 113.357 102.278C112.232 102.278 111.316 101.924 110.607 101.216C109.92 100.507 109.576 99.5908 109.576 98.4658C109.576 97.9033 109.68 97.3408 109.888 96.7783C110.118 96.195 110.441 95.7262 110.857 95.3721C111.232 95.0387 111.576 94.7575 111.888 94.5283C112.222 94.2783 112.649 94.0283 113.17 93.7783C113.691 93.5075 114.368 93.2054 115.201 92.8721C116.034 92.5387 117.138 92.0908 118.513 91.5283V89.2471C118.513 88.2679 118.274 87.5283 117.795 87.0283C117.336 86.5283 116.67 86.2783 115.795 86.2783C115.066 86.2783 114.451 86.4554 113.951 86.8096C113.472 87.1429 113.232 87.5492 113.232 88.0283C113.232 88.2158 113.253 88.4554 113.295 88.7471C113.357 89.0387 113.388 89.2783 113.388 89.4658C113.388 89.8825 113.222 90.2367 112.888 90.5283C112.576 90.82 112.211 90.9658 111.795 90.9658C111.378 90.9658 111.013 90.82 110.701 90.5283C110.409 90.2158 110.263 89.8512 110.263 89.4346C110.263 88.9762 110.388 88.5075 110.638 88.0283C110.909 87.5492 111.274 87.1221 111.732 86.7471C112.211 86.3304 112.847 86.0075 113.638 85.7783C114.451 85.5492 115.326 85.4346 116.263 85.4346C117.347 85.4346 118.253 85.6221 118.982 85.9971C119.732 86.3512 120.305 86.8512 120.701 87.4971C120.951 87.9137 121.128 88.4033 121.232 88.9658C121.336 89.5075 121.388 90.2471 121.388 91.1846V98.1846ZM118.513 92.4033C117.43 92.7992 116.503 93.1846 115.732 93.5596C114.982 93.9137 114.368 94.2887 113.888 94.6846C113.43 95.0596 113.097 95.4658 112.888 95.9033C112.68 96.3408 112.576 96.82 112.576 97.3408V97.4971C112.576 97.8721 112.638 98.2367 112.763 98.5908C112.888 98.9242 113.055 99.2158 113.263 99.4658C113.493 99.7158 113.753 99.9137 114.045 100.06C114.336 100.205 114.638 100.278 114.951 100.278C115.326 100.278 115.743 100.205 116.201 100.06C116.68 99.8929 117.128 99.695 117.545 99.4658C117.961 99.2367 118.222 98.9971 118.326 98.7471C118.451 98.4971 118.513 98.1012 118.513 97.5596V92.4033Z" fill="black"/>
<path d="M105.82 86.9971H102.195V97.2471C102.195 98.3929 102.341 99.2158 102.632 99.7158C102.924 100.195 103.393 100.435 104.038 100.435C104.455 100.435 104.82 100.351 105.132 100.185C105.445 99.9971 105.809 99.6637 106.226 99.1846L106.663 99.6221C105.538 101.393 104.101 102.278 102.351 102.278C100.247 102.278 99.1947 100.768 99.1947 97.7471V86.9971H97.3197C97.2364 86.9762 97.1947 86.9033 97.1947 86.7783C97.1947 86.57 97.3926 86.3408 97.7885 86.0908C98.726 85.5492 99.8822 84.2783 101.257 82.2783C101.361 82.1117 101.476 81.9554 101.601 81.8096C101.747 81.6429 101.872 81.4658 101.976 81.2783C102.059 81.2783 102.111 81.3096 102.132 81.3721C102.174 81.4346 102.195 81.5596 102.195 81.7471V85.8721H105.82V86.9971Z" fill="black"/>
<path d="M94.2822 86.9971H90.6572V97.2471C90.6572 98.3929 90.8031 99.2158 91.0947 99.7158C91.3864 100.195 91.8551 100.435 92.501 100.435C92.9176 100.435 93.2822 100.351 93.5947 100.185C93.9072 99.9971 94.2718 99.6637 94.6885 99.1846L95.126 99.6221C94.001 101.393 92.5635 102.278 90.8135 102.278C88.7093 102.278 87.6572 100.768 87.6572 97.7471V86.9971H85.7822C85.6989 86.9762 85.6572 86.9033 85.6572 86.7783C85.6572 86.57 85.8551 86.3408 86.251 86.0908C87.1885 85.5492 88.3447 84.2783 89.7197 82.2783C89.8239 82.1117 89.9385 81.9554 90.0635 81.8096C90.2093 81.6429 90.3343 81.4658 90.4385 81.2783C90.5218 81.2783 90.5739 81.3096 90.5947 81.3721C90.6364 81.4346 90.6572 81.5596 90.6572 81.7471V85.8721H94.2822V86.9971Z" fill="black"/>
<path d="M80.8697 98.1846C80.8697 98.9762 80.9426 99.5283 81.0885 99.8408C81.2343 100.132 81.5156 100.278 81.9322 100.278C82.4114 100.278 82.9322 100.06 83.4947 99.6221V100.528C82.8906 101.195 82.3593 101.653 81.901 101.903C81.4426 102.153 80.9114 102.278 80.3072 102.278C79.5781 102.278 79.0364 102.08 78.6822 101.685C78.3489 101.268 78.1406 100.58 78.0572 99.6221C76.9739 100.56 76.026 101.237 75.2135 101.653C74.401 102.07 73.6093 102.278 72.8385 102.278C71.7135 102.278 70.7968 101.924 70.0885 101.216C69.401 100.507 69.0572 99.5908 69.0572 98.4658C69.0572 97.9033 69.1614 97.3408 69.3697 96.7783C69.5989 96.195 69.9218 95.7262 70.3385 95.3721C70.7135 95.0387 71.0572 94.7575 71.3697 94.5283C71.7031 94.2783 72.1301 94.0283 72.651 93.7783C73.1718 93.5075 73.8489 93.2054 74.6822 92.8721C75.5156 92.5387 76.6197 92.0908 77.9947 91.5283V89.2471C77.9947 88.2679 77.7551 87.5283 77.276 87.0283C76.8176 86.5283 76.151 86.2783 75.276 86.2783C74.5468 86.2783 73.9322 86.4554 73.4322 86.8096C72.9531 87.1429 72.7135 87.5492 72.7135 88.0283C72.7135 88.2158 72.7343 88.4554 72.776 88.7471C72.8385 89.0387 72.8697 89.2783 72.8697 89.4658C72.8697 89.8825 72.7031 90.2367 72.3697 90.5283C72.0572 90.82 71.6926 90.9658 71.276 90.9658C70.8593 90.9658 70.4947 90.82 70.1822 90.5283C69.8906 90.2158 69.7447 89.8512 69.7447 89.4346C69.7447 88.9762 69.8697 88.5075 70.1197 88.0283C70.3906 87.5492 70.7551 87.1221 71.2135 86.7471C71.6926 86.3304 72.3281 86.0075 73.1197 85.7783C73.9322 85.5492 74.8072 85.4346 75.7447 85.4346C76.8281 85.4346 77.7343 85.6221 78.4635 85.9971C79.2135 86.3512 79.7864 86.8512 80.1822 87.4971C80.4322 87.9137 80.6093 88.4033 80.7135 88.9658C80.8176 89.5075 80.8697 90.2471 80.8697 91.1846V98.1846ZM77.9947 92.4033C76.9114 92.7992 75.9843 93.1846 75.2135 93.5596C74.4635 93.9137 73.8489 94.2887 73.3697 94.6846C72.9114 95.0596 72.5781 95.4658 72.3697 95.9033C72.1614 96.3408 72.0572 96.82 72.0572 97.3408V97.4971C72.0572 97.8721 72.1197 98.2367 72.2447 98.5908C72.3697 98.9242 72.5364 99.2158 72.7447 99.4658C72.9739 99.7158 73.2343 99.9137 73.526 100.06C73.8176 100.205 74.1197 100.278 74.4322 100.278C74.8072 100.278 75.2239 100.205 75.6822 100.06C76.1614 99.8929 76.6093 99.695 77.026 99.4658C77.4426 99.2367 77.7031 98.9971 77.8072 98.7471C77.9322 98.4971 77.9947 98.1012 77.9947 97.5596V92.4033Z" fill="black"/>
<path d="M65.2697 86.9971H60.8947V98.2471C60.8947 98.9137 60.926 99.4554 60.9885 99.8721C61.0718 100.268 61.228 100.58 61.4572 100.81C61.6864 101.018 62.0197 101.174 62.4572 101.278C62.8947 101.362 63.478 101.414 64.2072 101.435V101.935H54.9572V101.435C55.603 101.393 56.1135 101.33 56.4885 101.247C56.8843 101.143 57.1864 100.976 57.3947 100.747C57.603 100.518 57.7385 100.205 57.801 99.8096C57.8635 99.4137 57.8947 98.8929 57.8947 98.2471V86.9971H54.9885V85.8096H57.8947C57.8947 85.1012 57.9155 84.4867 57.9572 83.9658C58.0197 83.4242 58.0926 82.945 58.176 82.5283C58.2801 82.0908 58.4051 81.6846 58.551 81.3096C58.7176 80.9346 58.9155 80.5492 59.1447 80.1533C59.603 79.3617 60.2697 78.7367 61.1447 78.2783C62.0405 77.7992 63.051 77.5596 64.176 77.5596C65.2593 77.5596 66.1447 77.7679 66.8322 78.1846C67.5405 78.6012 67.8947 79.1325 67.8947 79.7783C67.8947 80.195 67.7489 80.5492 67.4572 80.8408C67.1864 81.1325 66.8322 81.2783 66.3947 81.2783C66.103 81.2783 65.8322 81.1846 65.5822 80.9971C65.3322 80.7887 65.0718 80.445 64.801 79.9658C64.4885 79.445 64.1864 79.0908 63.8947 78.9033C63.6239 78.695 63.2905 78.5908 62.8947 78.5908C61.5405 78.5908 60.8635 79.6429 60.8635 81.7471V85.8096H65.2697V86.9971Z" fill="black"/>
<path d="M40.9822 87.4971C41.5031 87.3096 41.9822 87.1429 42.4197 86.9971C42.8572 86.8304 43.2739 86.6742 43.6697 86.5283C44.0864 86.3617 44.4927 86.2054 44.8885 86.0596C45.3052 85.8929 45.7531 85.7158 46.2322 85.5283L46.451 85.5908V88.8721C46.8885 88.2262 47.2843 87.695 47.6385 87.2783C47.9927 86.8408 48.3364 86.4971 48.6697 86.2471C49.0031 85.9762 49.326 85.7887 49.6385 85.6846C49.9718 85.5804 50.326 85.5283 50.701 85.5283C51.3052 85.5283 51.7843 85.7054 52.1385 86.0596C52.4927 86.3929 52.6697 86.8408 52.6697 87.4033C52.6697 87.9242 52.5447 88.3304 52.2947 88.6221C52.0447 88.8929 51.7114 89.0283 51.2947 89.0283C51.0656 89.0283 50.8364 88.9867 50.6072 88.9033C50.3989 88.7992 50.1489 88.6012 49.8572 88.3096C49.6697 88.1429 49.4927 88.0179 49.326 87.9346C49.1593 87.8512 49.0239 87.8096 48.9197 87.8096C48.6697 87.8096 48.3989 87.9137 48.1072 88.1221C47.8364 88.3096 47.576 88.5492 47.326 88.8408C47.076 89.1325 46.8677 89.445 46.701 89.7783C46.5343 90.1117 46.451 90.4242 46.451 90.7158V98.7471C46.451 99.2471 46.4927 99.6637 46.576 99.9971C46.6593 100.33 46.8156 100.601 47.0447 100.81C47.2739 100.997 47.5864 101.143 47.9822 101.247C48.3781 101.351 48.8781 101.414 49.4822 101.435V101.935H40.8885V101.435C41.451 101.33 41.8989 101.226 42.2322 101.122C42.5864 100.997 42.8468 100.851 43.0135 100.685C43.201 100.518 43.3156 100.299 43.3572 100.028C43.4197 99.7367 43.451 99.3721 43.451 98.9346V90.0283C43.451 89.2367 43.3572 88.6846 43.1697 88.3721C42.9822 88.0387 42.6697 87.8721 42.2322 87.8721C42.0031 87.8721 41.7947 87.8825 41.6072 87.9033C41.4406 87.9242 41.2322 87.9658 40.9822 88.0283V87.4971Z" fill="black"/>
<path d="M30.1947 85.5283C31.3406 85.5283 32.3926 85.7262 33.351 86.1221C34.3093 86.5179 35.1322 87.0804 35.8197 87.8096C36.5281 88.5179 37.0801 89.3617 37.476 90.3408C37.8718 91.32 38.0697 92.4033 38.0697 93.5908C38.0697 94.8408 37.8614 95.9971 37.4447 97.0596C37.0489 98.1012 36.4968 99.0179 35.7885 99.8096C35.0801 100.58 34.2364 101.185 33.2572 101.622C32.2989 102.06 31.2572 102.278 30.1322 102.278C29.0072 102.278 27.9656 102.07 27.0072 101.653C26.0489 101.237 25.226 100.653 24.5385 99.9033C23.851 99.1533 23.3093 98.2679 22.9135 97.2471C22.5176 96.2262 22.3197 95.1117 22.3197 93.9033C22.3197 92.6742 22.5072 91.5492 22.8822 90.5283C23.2781 89.4867 23.8197 88.6012 24.5072 87.8721C25.1947 87.1221 26.0176 86.5492 26.976 86.1533C27.9551 85.7367 29.0281 85.5283 30.1947 85.5283ZM29.6635 86.5283C28.4135 86.5283 27.4135 87.0387 26.6635 88.0596C25.9135 89.0804 25.5385 90.4346 25.5385 92.1221C25.5385 93.3929 25.6739 94.6325 25.9447 95.8408C26.2156 97.0283 26.601 98.0908 27.101 99.0283C27.476 99.7575 27.976 100.32 28.601 100.716C29.226 101.112 29.9031 101.31 30.6322 101.31C31.9447 101.31 32.9656 100.737 33.6947 99.5908C34.4447 98.4242 34.8197 96.8304 34.8197 94.8096C34.8197 93.2887 34.601 91.8721 34.1635 90.5596C33.726 89.2471 33.1322 88.2575 32.3822 87.5908C31.9864 87.2158 31.5697 86.945 31.1322 86.7783C30.6947 86.6117 30.2051 86.5283 29.6635 86.5283ZM26.6322 79.7783C27.1322 79.7783 27.5593 79.9554 27.9135 80.3096C28.2676 80.6429 28.4447 81.0492 28.4447 81.5283C28.4447 82.0075 28.2676 82.4242 27.9135 82.7783C27.5593 83.1117 27.1322 83.2783 26.6322 83.2783C26.1531 83.2783 25.7468 83.1117 25.4135 82.7783C25.0801 82.4242 24.9135 81.9971 24.9135 81.4971C24.9135 81.0179 25.0801 80.6117 25.4135 80.2783C25.7468 79.945 26.1531 79.7783 26.6322 79.7783ZM33.7572 79.7783C34.2364 79.7783 34.6531 79.9554 35.0072 80.3096C35.3614 80.6429 35.5385 81.0492 35.5385 81.5283C35.5385 82.0075 35.3614 82.4242 35.0072 82.7783C34.6531 83.1117 34.226 83.2783 33.726 83.2783C33.2468 83.2783 32.8406 83.1117 32.5072 82.7783C32.1739 82.4242 32.0072 81.9971 32.0072 81.4971C32.0072 81.0179 32.1739 80.6117 32.5072 80.2783C32.8614 79.945 33.2781 79.7783 33.7572 79.7783Z" fill="black"/>
<path d="M16.0947 93.7158C15.9906 93.0075 15.8551 92.4346 15.6885 91.9971C15.5426 91.5387 15.3239 91.1846 15.0322 90.9346C14.7614 90.6846 14.3864 90.5179 13.9072 90.4346C13.4489 90.3304 12.8656 90.2783 12.1572 90.2783H7.00098V98.0908C7.00098 98.7158 7.03223 99.2262 7.09473 99.6221C7.17806 100.018 7.33431 100.341 7.56348 100.591C7.81348 100.82 8.14681 100.987 8.56348 101.091C9.00098 101.174 9.56348 101.237 10.251 101.278V101.935H0.282227V101.278C0.948893 101.237 1.48014 101.164 1.87598 101.06C2.29264 100.955 2.60514 100.778 2.81348 100.528C3.04264 100.257 3.18848 99.9033 3.25098 99.4658C3.33431 99.0075 3.37598 98.4033 3.37598 97.6533V82.2158C3.37598 81.5908 3.33431 81.0804 3.25098 80.6846C3.18848 80.2887 3.04264 79.9762 2.81348 79.7471C2.58431 79.5179 2.26139 79.3512 1.84473 79.2471C1.44889 79.1429 0.92806 79.07 0.282227 79.0283V78.3096H19.2197L19.2822 83.4346H18.4385C18.2718 82.6221 18.0843 81.9762 17.876 81.4971C17.6676 80.9971 17.3656 80.6117 16.9697 80.3408C16.5947 80.07 16.0843 79.8929 15.4385 79.8096C14.8135 79.7262 14.001 79.6846 13.001 79.6846H8.15723C7.65723 79.6846 7.33431 79.7575 7.18848 79.9033C7.06348 80.0492 7.00098 80.3825 7.00098 80.9033V88.8096H12.1572C12.8656 88.8096 13.4489 88.7679 13.9072 88.6846C14.3864 88.6012 14.7614 88.4346 15.0322 88.1846C15.3239 87.9346 15.5426 87.5908 15.6885 87.1533C15.8551 86.7158 15.9906 86.1429 16.0947 85.4346H16.9385V93.7158H16.0947Z" fill="black"/>
</svg>
