<svg width="401" height="143" viewBox="0 0 401 143" fill="none" xmlns="http://www.w3.org/2000/svg">
<path d="M358.304 49.7075V20.733H366.384L376.056 37.0567V20.733H384.055V49.7075H375.974L366.303 34.2001V49.7075H358.304Z" fill="white"/>
<path d="M332.559 49.7077V20.7332H354.025V27.1402H340.558V31.9965H353.535V38.3627H340.558V43.3006H354.351V49.7077H332.559ZM340.884 18.5295L337.211 12H344.557L346.761 18.5295H340.884Z" fill="white"/>
<path d="M309.086 49.7075V20.733H317.084V43.3005H329.694V49.7075H309.086Z" fill="white"/>
<path d="M285.613 49.7075V20.733H293.611V43.3005H306.221V49.7075H285.613Z" fill="white"/>
<path d="M267.444 50.3606C264.397 50.3606 261.772 49.7485 259.568 48.5242C257.364 47.2999 255.678 45.5587 254.508 43.3006C253.338 41.0425 252.753 38.3627 252.753 35.2612C252.753 32.1597 253.338 29.4799 254.508 27.2218C255.678 24.9365 257.364 23.1817 259.568 21.9574C261.772 20.7059 264.397 20.0802 267.444 20.0802C270.518 20.0802 273.144 20.7059 275.32 21.9574C277.524 23.1817 279.211 24.9365 280.381 27.2218C281.551 29.4799 282.135 32.1597 282.135 35.2612C282.135 38.3627 281.551 41.0425 280.381 43.3006C279.211 45.5587 277.524 47.2999 275.32 48.5242C273.144 49.7485 270.518 50.3606 267.444 50.3606ZM267.444 43.9536C269.485 43.9536 271.076 43.2054 272.219 41.7091C273.362 40.1855 273.933 38.0362 273.933 35.2612C273.933 32.4862 273.362 30.3369 272.219 28.8134C271.076 27.2626 269.485 26.4872 267.444 26.4872C265.404 26.4872 263.812 27.2626 262.67 28.8134C261.527 30.3369 260.955 32.4862 260.955 35.2612C260.955 38.0362 261.527 40.1855 262.67 41.7091C263.812 43.2054 265.404 43.9536 267.444 43.9536Z" fill="white"/>
<path d="M235.944 50.3606C233.251 50.3606 230.843 49.7621 228.721 48.565C226.626 47.3679 224.967 45.6539 223.742 43.423C222.545 41.1649 221.947 38.4443 221.947 35.2612C221.947 32.2141 222.518 29.5615 223.661 27.3034C224.803 25.0181 226.436 23.2497 228.558 21.9982C230.68 20.7195 233.196 20.0802 236.108 20.0802C240.08 20.0802 243.168 21.046 245.371 22.9777C247.602 24.9093 249.03 27.7251 249.656 31.4252L241.372 31.7108C241.1 30.0512 240.501 28.7726 239.576 27.8748C238.651 26.9497 237.495 26.4872 236.108 26.4872C234.122 26.4872 232.625 27.3034 231.619 28.9358C230.639 30.5682 230.149 32.6766 230.149 35.2612C230.149 37.9002 230.666 40.0087 231.7 41.5866C232.734 43.1646 234.176 43.9536 236.026 43.9536C237.604 43.9536 238.828 43.4775 239.699 42.5252C240.569 41.5458 241.127 40.1719 241.372 38.4035L249.697 38.6892C249.071 42.4708 247.616 45.3683 245.33 47.3815C243.045 49.3676 239.916 50.3606 235.944 50.3606Z" fill="white"/>
<path d="M180.838 49.7075L191.285 20.733H200.385L210.832 49.7075H202.671L201.038 44.9329H190.591L188.959 49.7075H180.838ZM192.713 38.7299H198.957L195.855 29.5478L192.713 38.7299Z" fill="white"/>
<path d="M152.226 49.7075V20.733H160.306L169.978 37.0567V20.733H177.976V49.7075H169.896L160.224 34.2001V49.7075H152.226Z" fill="white"/>
<path d="M139.552 49.7075V20.733H147.551V49.7075H139.552Z" fill="white"/>
<path d="M120.532 49.7075V27.1401H112.084V20.733H137.018V27.1401H128.571V49.7075H120.532Z" fill="white"/>
<path d="M99.3538 50.3606C95.3545 50.3606 92.253 49.4356 90.0493 47.5856C87.8456 45.7084 86.635 43.1782 86.4173 39.9951L94.3751 39.6278C94.5928 41.0425 95.0961 42.1444 95.8851 42.9333C96.7012 43.6951 97.8847 44.076 99.4355 44.076C100.66 44.076 101.598 43.8719 102.251 43.4639C102.931 43.0286 103.272 42.3892 103.272 41.5458C103.272 41.0289 103.135 40.58 102.863 40.1991C102.619 39.791 102.115 39.4374 101.353 39.1381C100.619 38.8116 99.5171 38.4987 98.0479 38.1995C95.4089 37.6554 93.2733 37.0296 91.6409 36.3223C90.0085 35.5877 88.8115 34.6491 88.0497 33.5064C87.3151 32.3638 86.9478 30.9082 86.9478 29.1398C86.9478 27.3442 87.4103 25.7663 88.3354 24.406C89.2604 23.0457 90.5935 21.9846 92.3347 21.2229C94.0758 20.4611 96.1707 20.0802 98.6193 20.0802C101.204 20.0802 103.367 20.5155 105.108 21.3861C106.849 22.2567 108.196 23.4538 109.148 24.9773C110.127 26.5008 110.712 28.2692 110.903 30.2825L103.027 30.609C102.918 29.2759 102.469 28.242 101.68 27.5075C100.918 26.7457 99.8708 26.3648 98.5377 26.3648C97.395 26.3648 96.5108 26.5961 95.8851 27.0586C95.2593 27.5211 94.9464 28.1332 94.9464 28.895C94.9464 29.7928 95.3001 30.4865 96.0075 30.9762C96.742 31.4388 98.0479 31.8332 99.9252 32.1597C102.782 32.6494 105.04 33.316 106.699 34.1594C108.359 35.0028 109.529 36.0094 110.209 37.1792C110.916 38.3491 111.27 39.6958 111.27 41.2194C111.27 44.0488 110.223 46.2797 108.128 47.9121C106.033 49.5444 103.108 50.3606 99.3538 50.3606Z" fill="white"/>
<path d="M74.5527 49.7075V20.733H82.5513V49.7075H74.5527Z" fill="white"/>
<path d="M45.4203 49.7075V20.733H59.2547C61.4312 20.733 63.322 21.0867 64.9271 21.7941C66.5595 22.5014 67.811 23.4945 68.6816 24.7731C69.5794 26.0518 70.0283 27.5618 70.0283 29.303C70.0283 31.1258 69.5658 32.6629 68.6408 33.9144C67.743 35.1659 66.4643 36.0501 64.8047 36.567C66.3555 36.7574 67.5117 37.2744 68.2735 38.1177C69.0625 38.9611 69.5114 40.1038 69.6202 41.5457L70.2731 49.7075H62.1113L61.7032 42.9332C61.6488 41.8722 61.3631 41.0968 60.8462 40.6071C60.3293 40.0902 59.4179 39.8317 58.112 39.8317H53.4189V49.7075H45.4203ZM53.4189 33.4247H57.7855C59.1186 33.4247 60.1253 33.1526 60.8054 32.6085C61.5128 32.0372 61.8664 31.2482 61.8664 30.2416C61.8664 28.1739 60.5061 27.1401 57.7855 27.1401H53.4189V33.4247Z" fill="white"/>
<path d="M16.4076 49.7075V20.733H24.4062V32.2004L33.2618 20.733H42.3214L32.1599 33.6695L42.8927 49.7075H34.0371L26.9363 38.8523L24.4062 41.9538V49.7075H16.4076Z" fill="white"/>
<path d="M18.8957 76.3625H180.229" stroke="white"/>
<rect x="196.229" y="76.3625" width="5.65954" height="5.65954" transform="rotate(-45 196.229 76.3625)" fill="white"/>
<path d="M220.233 76.3625H381.566" stroke="white"/>
<path d="M371.31 124.502C369.653 124.502 368.246 124.121 367.091 123.357C365.935 122.572 365.041 121.504 364.409 120.152C363.798 118.778 363.493 117.208 363.493 115.442C363.493 113.676 363.798 112.117 364.409 110.765C365.019 109.391 365.891 108.323 367.025 107.56C368.181 106.775 369.565 106.382 371.179 106.382C372.727 106.382 374.057 106.753 375.169 107.494C376.303 108.236 377.175 109.282 377.786 110.634C378.396 111.986 378.702 113.567 378.702 115.377V116.064H365.75C365.837 118.113 366.371 119.694 367.352 120.806C368.334 121.896 369.653 122.442 371.31 122.442C372.575 122.442 373.61 122.136 374.417 121.526C375.224 120.915 375.78 120.108 376.085 119.105L378.407 119.269C377.971 120.795 377.132 122.049 375.889 123.03C374.646 124.011 373.12 124.502 371.31 124.502ZM365.75 114.134H376.347C376.238 112.281 375.725 110.874 374.809 109.915C373.894 108.934 372.684 108.443 371.179 108.443C369.675 108.443 368.443 108.944 367.483 109.948C366.524 110.929 365.946 112.324 365.75 114.134Z" fill="white"/>
<path d="M352.335 124.11V106.775H354.199L354.297 110.209C354.973 107.92 356.423 106.775 358.647 106.775H360.152V108.868H358.582C357.274 108.868 356.26 109.293 355.54 110.144C354.842 110.972 354.494 112.106 354.494 113.545V124.11H352.335Z" fill="white"/>
<path d="M337.52 124.502C335.775 124.502 334.38 124.088 333.333 123.259C332.287 122.431 331.763 121.286 331.763 119.825C331.763 118.408 332.221 117.285 333.137 116.456C334.053 115.606 335.394 115.017 337.16 114.69L343.571 113.48C343.571 111.757 343.2 110.493 342.458 109.686C341.717 108.857 340.594 108.443 339.09 108.443C337.76 108.443 336.702 108.759 335.917 109.391C335.132 110.024 334.609 110.918 334.347 112.073L332.058 111.877C332.385 110.198 333.148 108.868 334.347 107.887C335.568 106.884 337.149 106.382 339.09 106.382C341.248 106.382 342.895 106.993 344.028 108.214C345.162 109.435 345.729 111.179 345.729 113.447V120.675C345.729 121.264 345.816 121.668 345.991 121.886C346.187 122.082 346.492 122.18 346.907 122.18H347.43V124.11C347.212 124.153 346.918 124.175 346.547 124.175C345.609 124.175 344.901 123.957 344.421 123.521C343.941 123.063 343.658 122.267 343.571 121.133C343.134 122.093 342.36 122.899 341.248 123.554C340.136 124.186 338.893 124.502 337.52 124.502ZM337.716 122.572C338.915 122.572 339.951 122.333 340.823 121.853C341.695 121.373 342.371 120.73 342.851 119.923C343.331 119.095 343.571 118.168 343.571 117.143V115.41L337.618 116.522C336.375 116.74 335.459 117.11 334.87 117.634C334.304 118.135 334.02 118.8 334.02 119.629C334.02 120.566 334.347 121.297 335.001 121.82C335.655 122.322 336.56 122.572 337.716 122.572Z" fill="white"/>
<path d="M320.366 124.502C318.12 124.502 316.365 123.957 315.1 122.867C313.857 121.777 313.171 120.414 313.04 118.778L315.297 118.615C315.427 119.77 315.907 120.697 316.736 121.395C317.586 122.093 318.796 122.442 320.366 122.442C321.74 122.442 322.808 122.213 323.571 121.755C324.335 121.297 324.716 120.588 324.716 119.629C324.716 119.105 324.596 118.669 324.356 118.32C324.138 117.95 323.68 117.634 322.983 117.372C322.285 117.089 321.238 116.827 319.843 116.587C318.208 116.304 316.932 115.944 316.016 115.508C315.1 115.05 314.457 114.505 314.086 113.872C313.716 113.24 313.53 112.477 313.53 111.583C313.53 110.057 314.086 108.814 315.198 107.854C316.31 106.873 317.859 106.382 319.843 106.382C321.195 106.382 322.339 106.633 323.277 107.135C324.236 107.614 324.989 108.269 325.534 109.097C326.079 109.926 326.439 110.831 326.613 111.812L324.356 112.008C324.182 111.005 323.713 110.166 322.95 109.49C322.187 108.792 321.14 108.443 319.81 108.443C318.502 108.443 317.499 108.726 316.801 109.293C316.125 109.838 315.787 110.569 315.787 111.485C315.787 112.422 316.114 113.12 316.768 113.578C317.423 114.014 318.611 114.385 320.333 114.69C322.056 114.973 323.397 115.333 324.356 115.769C325.338 116.184 326.024 116.707 326.417 117.339C326.809 117.95 327.006 118.702 327.006 119.596C327.006 121.166 326.384 122.376 325.141 123.227C323.92 124.077 322.329 124.502 320.366 124.502Z" fill="white"/>
<path d="M299.434 124.502C297.69 124.502 296.294 124.088 295.248 123.259C294.201 122.431 293.678 121.286 293.678 119.825C293.678 118.408 294.136 117.285 295.051 116.456C295.967 115.606 297.308 115.017 299.074 114.69L305.485 113.48C305.485 111.757 305.114 110.493 304.373 109.686C303.631 108.857 302.508 108.443 301.004 108.443C299.674 108.443 298.616 108.759 297.831 109.392C297.046 110.024 296.523 110.918 296.261 112.073L293.972 111.877C294.299 110.198 295.062 108.868 296.261 107.887C297.483 106.884 299.063 106.382 301.004 106.382C303.163 106.382 304.809 106.993 305.943 108.214C307.077 109.435 307.643 111.18 307.643 113.447V120.675C307.643 121.264 307.731 121.668 307.905 121.886C308.101 122.082 308.407 122.18 308.821 122.18H309.344V124.11C309.126 124.153 308.832 124.175 308.461 124.175C307.524 124.175 306.815 123.957 306.335 123.521C305.855 123.063 305.572 122.267 305.485 121.133C305.049 122.093 304.275 122.9 303.163 123.554C302.051 124.186 300.808 124.502 299.434 124.502ZM299.63 122.572C300.83 122.572 301.865 122.333 302.737 121.853C303.61 121.373 304.286 120.73 304.765 119.923C305.245 119.095 305.485 118.168 305.485 117.143V115.41L299.532 116.522C298.289 116.74 297.374 117.11 296.785 117.634C296.218 118.135 295.934 118.8 295.934 119.629C295.934 120.566 296.261 121.297 296.916 121.82C297.57 122.322 298.475 122.572 299.63 122.572ZM297.374 103.897V100.986H299.663V103.897H297.374ZM302.574 103.897V100.986H304.863V103.897H302.574Z" fill="white"/>
<path d="M287.992 124.11C287.011 124.11 286.237 123.87 285.67 123.39C285.103 122.889 284.819 122.115 284.819 121.068V100.888H286.978V120.904C286.978 121.755 287.414 122.18 288.286 122.18H289.66V124.11H287.992Z" fill="white"/>
<path d="M271.713 124.502C270.056 124.502 268.65 124.121 267.494 123.357C266.338 122.572 265.444 121.504 264.812 120.152C264.202 118.778 263.896 117.208 263.896 115.442C263.896 113.676 264.202 112.117 264.812 110.765C265.423 109.391 266.295 108.323 267.429 107.56C268.584 106.775 269.969 106.382 271.582 106.382C273.131 106.382 274.461 106.753 275.573 107.494C276.707 108.236 277.579 109.282 278.189 110.634C278.8 111.986 279.105 113.567 279.105 115.377V116.064H266.153C266.24 118.113 266.775 119.694 267.756 120.806C268.737 121.896 270.056 122.442 271.713 122.442C272.978 122.442 274.014 122.136 274.82 121.526C275.627 120.915 276.183 120.108 276.489 119.105L278.811 119.269C278.375 120.795 277.535 122.049 276.292 123.03C275.049 124.011 273.523 124.502 271.713 124.502ZM266.153 114.134H276.75C276.641 112.281 276.129 110.874 275.213 109.915C274.297 108.934 273.087 108.443 271.582 108.443C270.078 108.443 268.846 108.944 267.887 109.948C266.927 110.929 266.349 112.324 266.153 114.134Z" fill="white"/>
<path d="M252.738 124.11V106.775H254.603L254.701 110.209C255.377 107.92 256.827 106.775 259.051 106.775H260.555V108.868H258.985C257.677 108.868 256.663 109.293 255.944 110.144C255.246 110.972 254.897 112.106 254.897 113.545V124.11H252.738Z" fill="white"/>
<path d="M239.503 124.502C237.933 124.502 236.57 124.131 235.415 123.39C234.259 122.649 233.354 121.602 232.7 120.25C232.068 118.898 231.752 117.296 231.752 115.442C231.752 113.589 232.068 111.986 232.7 110.634C233.354 109.283 234.259 108.236 235.415 107.495C236.57 106.753 237.933 106.382 239.503 106.382C241.073 106.382 242.436 106.753 243.592 107.495C244.747 108.236 245.641 109.283 246.273 110.634C246.906 111.986 247.222 113.589 247.222 115.442C247.222 117.296 246.906 118.898 246.273 120.25C245.641 121.602 244.747 122.649 243.592 123.39C242.436 124.131 241.073 124.502 239.503 124.502ZM239.503 122.442C241.204 122.442 242.534 121.82 243.493 120.577C244.475 119.313 244.965 117.601 244.965 115.442C244.965 113.262 244.475 111.55 243.493 110.307C242.534 109.064 241.204 108.443 239.503 108.443C237.781 108.443 236.429 109.064 235.447 110.307C234.488 111.55 234.008 113.262 234.008 115.442C234.008 117.601 234.488 119.313 235.447 120.577C236.429 121.82 237.781 122.442 239.503 122.442ZM235.775 103.897V100.986H238.064V103.897H235.775ZM240.975 103.897V100.986H243.264V103.897H240.975Z" fill="white"/>
<path d="M221.913 124.11V108.705H219.46V106.775H221.913V104.976C221.913 103.733 222.262 102.741 222.96 102C223.658 101.258 224.737 100.888 226.198 100.888H228.684V102.817H226.362C225.555 102.817 224.966 103.025 224.595 103.439C224.247 103.831 224.072 104.398 224.072 105.14V106.775H228.52V108.705H224.072V124.11H221.913Z" fill="white"/>
<path d="M194.59 124.633C192.431 124.633 190.709 124.099 189.422 123.03C188.136 121.962 187.493 120.436 187.493 118.451C187.493 116.903 187.863 115.595 188.605 114.526C189.368 113.458 190.578 112.357 192.235 111.223C191.363 110.067 190.709 109.075 190.273 108.247C189.859 107.418 189.651 106.502 189.651 105.499C189.651 103.908 190.131 102.654 191.09 101.738C192.072 100.822 193.38 100.364 195.015 100.364C196.629 100.364 197.894 100.8 198.809 101.673C199.747 102.523 200.216 103.711 200.216 105.238C200.216 106.481 199.845 107.604 199.104 108.607C198.362 109.588 197.109 110.645 195.342 111.779L201.164 119.171C201.971 118.059 202.407 116.5 202.472 114.494L204.697 114.723C204.631 115.878 204.402 117.012 204.01 118.124C203.617 119.214 203.127 120.119 202.538 120.839L205.22 124.11H202.571L201.164 122.376C200.488 123.052 199.605 123.597 198.515 124.012C197.425 124.426 196.116 124.633 194.59 124.633ZM194.165 110.209C195.539 109.315 196.498 108.519 197.043 107.822C197.61 107.124 197.894 106.306 197.894 105.369C197.894 104.475 197.643 103.788 197.141 103.308C196.64 102.806 195.931 102.556 195.015 102.556C194.078 102.556 193.336 102.817 192.791 103.341C192.268 103.864 192.006 104.584 192.006 105.499C192.006 106.219 192.159 106.917 192.464 107.593C192.769 108.269 193.336 109.141 194.165 110.209ZM194.852 122.54C195.964 122.54 196.934 122.376 197.763 122.049C198.613 121.7 199.267 121.264 199.725 120.741L193.543 112.924C192.213 113.818 191.265 114.69 190.698 115.54C190.131 116.391 189.848 117.361 189.848 118.451C189.848 119.738 190.273 120.741 191.123 121.46C191.974 122.18 193.216 122.54 194.852 122.54Z" fill="white"/>
<path d="M165.754 124.502C164.097 124.502 162.691 124.121 161.535 123.357C160.379 122.572 159.486 121.504 158.853 120.152C158.243 118.778 157.937 117.208 157.937 115.442C157.937 113.676 158.243 112.117 158.853 110.765C159.464 109.391 160.336 108.323 161.47 107.56C162.625 106.775 164.01 106.382 165.624 106.382C167.172 106.382 168.502 106.753 169.614 107.494C170.748 108.236 171.62 109.282 172.23 110.634C172.841 111.986 173.146 113.567 173.146 115.377V116.064H160.194C160.281 118.113 160.816 119.694 161.797 120.806C162.778 121.896 164.097 122.442 165.754 122.442C167.019 122.442 168.055 122.136 168.861 121.526C169.668 120.915 170.224 120.108 170.53 119.105L172.852 119.269C172.416 120.795 171.576 122.049 170.333 123.03C169.09 124.011 167.564 124.502 165.754 124.502ZM160.194 114.134H170.791C170.682 112.281 170.17 110.874 169.254 109.915C168.338 108.934 167.128 108.443 165.624 108.443C164.119 108.443 162.887 108.944 161.928 109.948C160.968 110.929 160.39 112.324 160.194 114.134Z" fill="white"/>
<path d="M146.779 124.11V106.775H148.644L148.742 110.209C149.418 107.92 150.868 106.775 153.092 106.775H154.596V108.868H153.026C151.718 108.868 150.704 109.293 149.985 110.144C149.287 110.972 148.938 112.106 148.938 113.545V124.11H146.779Z" fill="white"/>
<path d="M131.964 124.502C130.22 124.502 128.824 124.088 127.778 123.259C126.731 122.431 126.208 121.286 126.208 119.825C126.208 118.408 126.666 117.285 127.581 116.456C128.497 115.606 129.838 115.017 131.604 114.69L138.015 113.48C138.015 111.757 137.644 110.493 136.903 109.686C136.162 108.857 135.039 108.443 133.534 108.443C132.204 108.443 131.147 108.759 130.362 109.391C129.577 110.024 129.053 110.918 128.792 112.073L126.502 111.877C126.829 110.198 127.592 108.868 128.792 107.887C130.013 106.884 131.594 106.382 133.534 106.382C135.693 106.382 137.339 106.993 138.473 108.214C139.607 109.435 140.174 111.179 140.174 113.447V120.675C140.174 121.264 140.261 121.668 140.435 121.886C140.632 122.082 140.937 122.18 141.351 122.18H141.874V124.11C141.656 124.153 141.362 124.175 140.991 124.175C140.054 124.175 139.345 123.957 138.865 123.521C138.386 123.063 138.102 122.267 138.015 121.133C137.579 122.093 136.805 122.899 135.693 123.554C134.581 124.186 133.338 124.502 131.964 124.502ZM132.16 122.572C133.36 122.572 134.395 122.333 135.268 121.853C136.14 121.373 136.816 120.73 137.295 119.923C137.775 119.095 138.015 118.168 138.015 117.143V115.41L132.062 116.522C130.819 116.74 129.904 117.11 129.315 117.634C128.748 118.135 128.465 118.8 128.465 119.629C128.465 120.566 128.792 121.297 129.446 121.82C130.1 122.322 131.005 122.572 132.16 122.572Z" fill="white"/>
<path d="M110.433 124.11C107.663 124.11 106.279 122.758 106.279 120.054V108.705H103.564V106.775H106.279V102.719H108.437V106.775H112.918V108.705H108.437V119.989C108.437 120.795 108.612 121.362 108.961 121.689C109.331 122.016 109.887 122.18 110.629 122.18H112.918V124.11H110.433ZM119.721 124.11C116.952 124.11 115.568 122.758 115.568 120.054V108.705H112.853V106.775H115.568V102.719H117.726V106.775H122.207V108.705H117.726V119.989C117.726 120.795 117.901 121.362 118.25 121.689C118.62 122.016 119.176 122.18 119.918 122.18H122.207V124.11H119.721Z" fill="white"/>
<path d="M90.5567 124.502C88.8123 124.502 87.4168 124.088 86.3702 123.259C85.3236 122.431 84.8003 121.286 84.8003 119.825C84.8003 118.408 85.2582 117.285 86.174 116.456C87.0898 115.606 88.4307 115.017 90.1969 114.69L96.6075 113.48C96.6075 111.757 96.2368 110.493 95.4954 109.686C94.7541 108.857 93.6311 108.443 92.1266 108.443C90.7965 108.443 89.739 108.759 88.954 109.391C88.1691 110.024 87.6458 110.918 87.3841 112.073L85.0946 111.877C85.4217 110.198 86.1849 108.868 87.3841 107.887C88.6052 106.884 90.186 106.382 92.1266 106.382C94.2853 106.382 95.9315 106.993 97.0654 108.214C98.1992 109.435 98.7661 111.179 98.7661 113.447V120.675C98.7661 121.264 98.8534 121.668 99.0278 121.886C99.224 122.082 99.5293 122.18 99.9436 122.18H100.467V124.11C100.249 124.153 99.9545 124.175 99.5838 124.175C98.6462 124.175 97.9376 123.957 97.4579 123.521C96.9782 123.063 96.6947 122.267 96.6075 121.133C96.1714 122.093 95.3973 122.899 94.2853 123.554C93.1732 124.186 91.9304 124.502 90.5567 124.502ZM90.7529 122.572C91.9522 122.572 92.9879 122.333 93.8601 121.853C94.7323 121.373 95.4082 120.73 95.8879 119.923C96.3676 119.095 96.6075 118.168 96.6075 117.143V115.41L90.6548 116.522C89.4119 116.74 88.4962 117.11 87.9074 117.634C87.3405 118.135 87.057 118.8 87.057 119.629C87.057 120.566 87.3841 121.297 88.0383 121.82C88.6924 122.322 89.5973 122.572 90.7529 122.572Z" fill="white"/>
<path d="M74.5469 124.11V108.705H72.0939V106.775H74.5469V104.976C74.5469 103.733 74.8958 102.741 75.5935 102C76.2913 101.258 77.3706 100.888 78.8315 100.888H81.3172V102.817H78.995C78.1883 102.817 77.5995 103.025 77.2289 103.439C76.88 103.831 76.7056 104.398 76.7056 105.14V106.775H81.1537V108.705H76.7056V124.11H74.5469Z" fill="white"/>
<path d="M60.8278 124.11V106.775H62.6921L62.7902 110.209C63.4662 107.92 64.9162 106.775 67.1403 106.775H68.6448V108.868H67.0748C65.7666 108.868 64.7527 109.293 64.0331 110.144C63.3353 110.972 62.9865 112.106 62.9865 113.545V124.11H60.8278Z" fill="white"/>
<path d="M47.5925 124.502C46.0226 124.502 44.6598 124.131 43.5042 123.39C42.3485 122.649 41.4436 121.602 40.7895 120.25C40.1571 118.898 39.841 117.296 39.841 115.442C39.841 113.589 40.1571 111.986 40.7895 110.634C41.4436 109.283 42.3485 108.236 43.5042 107.495C44.6598 106.753 46.0226 106.382 47.5925 106.382C49.1625 106.382 50.5252 106.753 51.6809 107.495C52.8365 108.236 53.7305 109.283 54.3629 110.634C54.9952 111.986 55.3114 113.589 55.3114 115.442C55.3114 117.296 54.9952 118.898 54.3629 120.25C53.7305 121.602 52.8365 122.649 51.6809 123.39C50.5252 124.131 49.1625 124.502 47.5925 124.502ZM47.5925 122.442C49.2933 122.442 50.6234 121.82 51.5828 120.577C52.564 119.313 53.0546 117.601 53.0546 115.442C53.0546 113.262 52.564 111.55 51.5828 110.307C50.6234 109.064 49.2933 108.443 47.5925 108.443C45.87 108.443 44.5181 109.064 43.5369 110.307C42.5775 111.55 42.0978 113.262 42.0978 115.442C42.0978 117.601 42.5775 119.313 43.5369 120.577C44.5181 121.82 45.87 122.442 47.5925 122.442ZM43.8639 103.897V100.986H46.1534V103.897H43.8639ZM49.0643 103.897V100.986H51.3538V103.897H49.0643Z" fill="white"/>
<path d="M21.7604 124.11V100.888H36.0533V103.046H23.9845V111.616H35.4646V113.742H23.9845V124.11H21.7604Z" fill="white"/>
</svg>
