<svg width="400" height="142" viewBox="0 0 400 142" fill="none" xmlns="http://www.w3.org/2000/svg">
<path d="M358.195 49.7075V20.733H366.275L375.946 37.0567V20.733H383.945V49.7075H375.865L366.193 34.2001V49.7075H358.195Z" fill="#101010"/>
<path d="M332.45 49.7077V20.7332H353.915V27.1402H340.448V31.9965H353.426V38.3627H340.448V43.3006H354.242V49.7077H332.45ZM340.775 18.5295L337.102 12H344.447L346.651 18.5295H340.775Z" fill="#101010"/>
<path d="M308.976 49.7075V20.733H316.975V43.3005H329.585V49.7075H308.976Z" fill="#101010"/>
<path d="M285.503 49.7075V20.733H293.502V43.3005H306.112V49.7075H285.503Z" fill="#101010"/>
<path d="M267.335 50.3606C264.288 50.3606 261.662 49.7485 259.458 48.5242C257.255 47.2999 255.568 45.5587 254.398 43.3006C253.228 41.0425 252.643 38.3627 252.643 35.2612C252.643 32.1597 253.228 29.4799 254.398 27.2218C255.568 24.9365 257.255 23.1817 259.458 21.9574C261.662 20.7059 264.288 20.0802 267.335 20.0802C270.409 20.0802 273.034 20.7059 275.211 21.9574C277.414 23.1817 279.101 24.9365 280.271 27.2218C281.441 29.4799 282.026 32.1597 282.026 35.2612C282.026 38.3627 281.441 41.0425 280.271 43.3006C279.101 45.5587 277.414 47.2999 275.211 48.5242C273.034 49.7485 270.409 50.3606 267.335 50.3606ZM267.335 43.9536C269.375 43.9536 270.967 43.2054 272.109 41.7091C273.252 40.1855 273.823 38.0362 273.823 35.2612C273.823 32.4862 273.252 30.3369 272.109 28.8134C270.967 27.2626 269.375 26.4872 267.335 26.4872C265.294 26.4872 263.703 27.2626 262.56 28.8134C261.417 30.3369 260.846 32.4862 260.846 35.2612C260.846 38.0362 261.417 40.1855 262.56 41.7091C263.703 43.2054 265.294 43.9536 267.335 43.9536Z" fill="#101010"/>
<path d="M235.835 50.3606C233.141 50.3606 230.734 49.7621 228.611 48.565C226.517 47.3679 224.857 45.6539 223.633 43.423C222.436 41.1649 221.837 38.4443 221.837 35.2612C221.837 32.2141 222.408 29.5615 223.551 27.3034C224.694 25.0181 226.326 23.2497 228.448 21.9982C230.57 20.7195 233.087 20.0802 235.998 20.0802C239.97 20.0802 243.058 21.046 245.262 22.9777C247.493 24.9093 248.921 27.7251 249.547 31.4251L241.262 31.7108C240.99 30.0512 240.392 28.7726 239.467 27.8748C238.542 26.9497 237.385 26.4872 235.998 26.4872C234.012 26.4872 232.516 27.3034 231.509 28.9358C230.53 30.5682 230.04 32.6766 230.04 35.2612C230.04 37.9002 230.557 40.0087 231.591 41.5866C232.624 43.1646 234.066 43.9536 235.916 43.9536C237.494 43.9536 238.719 43.4775 239.589 42.5252C240.46 41.5458 241.017 40.1719 241.262 38.4035L249.587 38.6892C248.962 42.4708 247.506 45.3683 245.221 47.3815C242.936 49.3676 239.807 50.3606 235.835 50.3606Z" fill="#101010"/>
<path d="M180.728 49.7075L191.175 20.733H200.276L210.723 49.7075H202.561L200.929 44.9329H190.481L188.849 49.7075H180.728ZM192.604 38.7299H198.847L195.746 29.5478L192.604 38.7299Z" fill="#101010"/>
<path d="M152.116 49.7075V20.733H160.196L169.868 37.0567V20.733H177.867V49.7075H169.786L160.115 34.2001V49.7075H152.116Z" fill="#101010"/>
<path d="M139.443 49.7075V20.733H147.441V49.7075H139.443Z" fill="#101010"/>
<path d="M120.422 49.7075V27.1401H111.974V20.733H136.909V27.1401H128.461V49.7075H120.422Z" fill="#101010"/>
<path d="M99.2443 50.3606C95.245 50.3606 92.1435 49.4356 89.9398 47.5856C87.7361 45.7084 86.5254 43.1782 86.3078 39.9951L94.2656 39.6278C94.4832 41.0425 94.9865 42.1444 95.7755 42.9333C96.5917 43.6951 97.7751 44.076 99.3259 44.076C100.55 44.076 101.489 43.8719 102.142 43.4639C102.822 43.0286 103.162 42.3892 103.162 41.5458C103.162 41.0289 103.026 40.58 102.754 40.1991C102.509 39.791 102.006 39.4374 101.244 39.1381C100.509 38.8116 99.4075 38.4987 97.9384 38.1995C95.2994 37.6554 93.1637 37.0296 91.5313 36.3223C89.899 35.5877 88.7019 34.6491 87.9401 33.5064C87.2056 32.3638 86.8383 30.9082 86.8383 29.1398C86.8383 27.3442 87.3008 25.7663 88.2258 24.406C89.1508 23.0457 90.4839 21.9846 92.2251 21.2229C93.9663 20.4611 96.0612 20.0802 98.5097 20.0802C101.094 20.0802 103.257 20.5155 104.998 21.3861C106.74 22.2567 108.086 23.4538 109.038 24.9773C110.018 26.5008 110.603 28.2692 110.793 30.2825L102.917 30.609C102.808 29.2759 102.359 28.242 101.57 27.5075C100.809 26.7457 99.7612 26.3648 98.4281 26.3648C97.2854 26.3648 96.4012 26.5961 95.7755 27.0586C95.1498 27.5211 94.8369 28.1332 94.8369 28.895C94.8369 29.7928 95.1906 30.4865 95.8979 30.9762C96.6325 31.4388 97.9384 31.8332 99.8156 32.1597C102.672 32.6494 104.93 33.316 106.59 34.1594C108.25 35.0028 109.419 36.0094 110.1 37.1792C110.807 38.3491 111.161 39.6958 111.161 41.2194C111.161 44.0488 110.113 46.2797 108.018 47.9121C105.923 49.5444 102.999 50.3606 99.2443 50.3606Z" fill="#101010"/>
<path d="M74.4431 49.7075V20.733H82.4417V49.7075H74.4431Z" fill="#101010"/>
<path d="M45.3108 49.7075V20.733H59.1451C61.3216 20.733 63.2124 21.0867 64.8176 21.7941C66.4499 22.5014 67.7014 23.4945 68.572 24.7731C69.4698 26.0518 69.9187 27.5618 69.9187 29.303C69.9187 31.1258 69.4562 32.6629 68.5312 33.9144C67.6334 35.1659 66.3547 36.0501 64.6952 36.567C66.2459 36.7574 67.4022 37.2744 68.1639 38.1177C68.9529 38.9611 69.4018 40.1038 69.5106 41.5457L70.1636 49.7075H62.0017L61.5937 42.9332C61.5392 41.8722 61.2536 41.0968 60.7367 40.6071C60.2197 40.0902 59.3083 39.8317 58.0024 39.8317H53.3094V49.7075H45.3108ZM53.3094 33.4247H57.676C59.0091 33.4247 60.0157 33.1526 60.6958 32.6085C61.4032 32.0372 61.7569 31.2482 61.7569 30.2416C61.7569 28.1739 60.3966 27.1401 57.676 27.1401H53.3094V33.4247Z" fill="#101010"/>
<path d="M16.298 49.7075V20.733H24.2966V32.2004L33.1522 20.733H42.2118L32.0503 33.6695L42.7832 49.7075H33.9276L26.8268 38.8523L24.2966 41.9538V49.7075H16.298Z" fill="#101010"/>
<path d="M18.7861 76.3625H180.12" stroke="#101010"/>
<rect x="196.12" y="76.3625" width="5.65954" height="5.65954" transform="rotate(-45 196.12 76.3625)" fill="#101010"/>
<path d="M220.123 76.3625H381.457" stroke="#101010"/>
<path d="M376.017 125.182C374.314 125.182 372.868 124.789 371.679 124.005C370.491 123.198 369.572 122.099 368.922 120.709C368.294 119.297 367.98 117.683 367.98 115.867C367.98 114.051 368.294 112.448 368.922 111.058C369.55 109.646 370.446 108.547 371.612 107.762C372.8 106.955 374.224 106.552 375.883 106.552C377.475 106.552 378.842 106.933 379.985 107.695C381.151 108.457 382.048 109.534 382.676 110.924C383.303 112.313 383.617 113.939 383.617 115.8V116.506H370.301C370.39 118.613 370.94 120.238 371.948 121.382C372.957 122.503 374.314 123.063 376.017 123.063C377.318 123.063 378.383 122.749 379.212 122.122C380.042 121.494 380.613 120.664 380.927 119.633L383.315 119.801C382.866 121.371 382.003 122.66 380.725 123.668C379.447 124.677 377.878 125.182 376.017 125.182ZM370.301 114.522H381.196C381.084 112.616 380.557 111.17 379.616 110.184C378.674 109.175 377.43 108.67 375.883 108.67C374.336 108.67 373.069 109.186 372.083 110.217C371.097 111.226 370.502 112.661 370.301 114.522Z" fill="#101010"/>
<path d="M356.508 124.778V106.955H358.425L358.526 110.486C359.221 108.132 360.712 106.955 362.998 106.955H364.545V109.108H362.931C361.586 109.108 360.544 109.545 359.804 110.419C359.086 111.271 358.728 112.437 358.728 113.916V124.778H356.508Z" fill="#101010"/>
<path d="M341.276 125.182C339.482 125.182 338.048 124.756 336.971 123.904C335.895 123.052 335.357 121.875 335.357 120.373C335.357 118.916 335.828 117.761 336.77 116.909C337.711 116.035 339.09 115.43 340.906 115.093L347.497 113.849C347.497 112.078 347.116 110.778 346.354 109.948C345.591 109.096 344.437 108.67 342.89 108.67C341.522 108.67 340.435 108.996 339.628 109.646C338.821 110.296 338.283 111.215 338.014 112.403L335.66 112.201C335.996 110.475 336.781 109.108 338.014 108.099C339.269 107.068 340.895 106.552 342.89 106.552C345.109 106.552 346.802 107.18 347.968 108.435C349.134 109.69 349.716 111.484 349.716 113.816V121.247C349.716 121.853 349.806 122.267 349.985 122.492C350.187 122.693 350.501 122.794 350.927 122.794H351.465V124.778C351.241 124.823 350.938 124.845 350.557 124.845C349.593 124.845 348.865 124.621 348.371 124.173C347.878 123.702 347.587 122.884 347.497 121.718C347.049 122.704 346.253 123.534 345.109 124.207C343.966 124.857 342.688 125.182 341.276 125.182ZM341.478 123.198C342.711 123.198 343.775 122.951 344.672 122.458C345.569 121.965 346.264 121.303 346.757 120.474C347.25 119.622 347.497 118.669 347.497 117.615V115.833L341.377 116.977C340.099 117.201 339.157 117.582 338.552 118.12C337.969 118.636 337.678 119.319 337.678 120.171C337.678 121.135 338.014 121.886 338.686 122.424C339.359 122.94 340.289 123.198 341.478 123.198Z" fill="#101010"/>
<path d="M323.639 125.182C321.33 125.182 319.526 124.621 318.225 123.5C316.947 122.379 316.241 120.978 316.107 119.297L318.427 119.129C318.562 120.317 319.055 121.27 319.907 121.987C320.781 122.704 322.025 123.063 323.639 123.063C325.052 123.063 326.15 122.828 326.935 122.357C327.72 121.886 328.112 121.158 328.112 120.171C328.112 119.633 327.989 119.185 327.742 118.826C327.518 118.445 327.047 118.12 326.33 117.851C325.612 117.559 324.536 117.29 323.101 117.044C321.42 116.752 320.108 116.382 319.167 115.934C318.225 115.463 317.564 114.903 317.183 114.253C316.802 113.603 316.611 112.818 316.611 111.899C316.611 110.329 317.183 109.052 318.326 108.065C319.469 107.056 321.061 106.552 323.101 106.552C324.491 106.552 325.668 106.81 326.632 107.325C327.619 107.819 328.392 108.491 328.953 109.343C329.513 110.195 329.883 111.125 330.062 112.134L327.742 112.336C327.563 111.305 327.081 110.442 326.296 109.747C325.511 109.029 324.435 108.67 323.068 108.67C321.723 108.67 320.691 108.962 319.974 109.545C319.279 110.105 318.931 110.856 318.931 111.798C318.931 112.762 319.268 113.479 319.94 113.95C320.613 114.398 321.835 114.78 323.606 115.093C325.377 115.385 326.756 115.755 327.742 116.203C328.751 116.629 329.457 117.167 329.861 117.817C330.264 118.445 330.466 119.218 330.466 120.138C330.466 121.752 329.827 122.996 328.549 123.87C327.294 124.745 325.657 125.182 323.639 125.182Z" fill="#101010"/>
<path d="M302.118 125.182C300.324 125.182 298.889 124.756 297.813 123.904C296.737 123.052 296.199 121.875 296.199 120.373C296.199 118.916 296.67 117.761 297.612 116.909C298.553 116.035 299.932 115.43 301.748 115.093L308.339 113.849C308.339 112.078 307.958 110.778 307.196 109.948C306.433 109.096 305.279 108.67 303.732 108.67C302.364 108.67 301.277 108.996 300.47 109.646C299.663 110.296 299.125 111.215 298.856 112.403L296.502 112.201C296.838 110.475 297.623 109.108 298.856 108.099C300.111 107.068 301.737 106.552 303.732 106.552C305.951 106.552 307.644 107.18 308.81 108.435C309.975 109.691 310.558 111.484 310.558 113.816V121.247C310.558 121.853 310.648 122.267 310.827 122.492C311.029 122.693 311.343 122.794 311.769 122.794H312.307V124.778C312.083 124.823 311.78 124.845 311.399 124.845C310.435 124.845 309.706 124.621 309.213 124.173C308.72 123.702 308.429 122.884 308.339 121.718C307.891 122.705 307.095 123.534 305.951 124.207C304.808 124.857 303.53 125.182 302.118 125.182ZM302.319 123.198C303.553 123.198 304.617 122.951 305.514 122.458C306.411 121.965 307.106 121.303 307.599 120.474C308.092 119.622 308.339 118.669 308.339 117.615V115.833L302.219 116.977C300.941 117.201 299.999 117.582 299.394 118.12C298.811 118.636 298.52 119.319 298.52 120.171C298.52 121.135 298.856 121.886 299.528 122.424C300.201 122.94 301.131 123.198 302.319 123.198ZM299.999 103.996V101.003H302.353V103.996H299.999ZM305.346 103.996V101.003H307.7V103.996H305.346Z" fill="#101010"/>
<path d="M290.354 124.778C289.345 124.778 288.549 124.532 287.966 124.038C287.383 123.523 287.092 122.727 287.092 121.651V100.902H289.311V121.483C289.311 122.357 289.759 122.794 290.656 122.794H292.069V124.778H290.354Z" fill="#101010"/>
<path d="M273.617 125.182C271.913 125.182 270.467 124.789 269.279 124.005C268.09 123.198 267.171 122.099 266.521 120.709C265.893 119.297 265.579 117.683 265.579 115.867C265.579 114.051 265.893 112.448 266.521 111.058C267.149 109.646 268.046 108.547 269.211 107.762C270.399 106.955 271.823 106.552 273.482 106.552C275.074 106.552 276.441 106.933 277.585 107.695C278.75 108.457 279.647 109.534 280.275 110.924C280.903 112.313 281.216 113.939 281.216 115.8V116.506H267.9C267.989 118.613 268.539 120.238 269.548 121.382C270.556 122.503 271.913 123.063 273.617 123.063C274.917 123.063 275.982 122.749 276.811 122.122C277.641 121.494 278.212 120.664 278.526 119.633L280.914 119.801C280.465 121.371 279.602 122.66 278.324 123.668C277.047 124.677 275.477 125.182 273.617 125.182ZM267.9 114.522H278.795C278.683 112.616 278.156 111.17 277.215 110.184C276.273 109.175 275.029 108.67 273.482 108.67C271.935 108.67 270.668 109.186 269.682 110.217C268.696 111.226 268.102 112.661 267.9 114.522Z" fill="#101010"/>
<path d="M254.107 124.778V106.955H256.024L256.125 110.486C256.82 108.132 258.311 106.955 260.597 106.955H262.144V109.108H260.53C259.185 109.108 258.143 109.545 257.403 110.419C256.685 111.271 256.327 112.437 256.327 113.916V124.778H254.107Z" fill="#101010"/>
<path d="M240.499 125.182C238.885 125.182 237.484 124.801 236.296 124.038C235.108 123.276 234.177 122.2 233.505 120.81C232.855 119.42 232.53 117.772 232.53 115.867C232.53 113.961 232.855 112.313 233.505 110.924C234.177 109.534 235.108 108.457 236.296 107.695C237.484 106.933 238.885 106.552 240.499 106.552C242.113 106.552 243.515 106.933 244.703 107.695C245.891 108.457 246.81 109.534 247.46 110.924C248.11 112.313 248.436 113.961 248.436 115.867C248.436 117.772 248.11 119.42 247.46 120.81C246.81 122.2 245.891 123.276 244.703 124.038C243.515 124.801 242.113 125.182 240.499 125.182ZM240.499 123.063C242.248 123.063 243.616 122.424 244.602 121.146C245.611 119.846 246.115 118.086 246.115 115.867C246.115 113.625 245.611 111.865 244.602 110.587C243.616 109.309 242.248 108.67 240.499 108.67C238.728 108.67 237.338 109.309 236.329 110.587C235.343 111.865 234.85 113.625 234.85 115.867C234.85 118.086 235.343 119.846 236.329 121.146C237.338 122.424 238.728 123.063 240.499 123.063ZM236.666 103.996V101.003H239.02V103.996H236.666ZM242.013 103.996V101.003H244.367V103.996H242.013Z" fill="#101010"/>
<path d="M222.414 124.778V108.94H219.892V106.955H222.414V105.106C222.414 103.828 222.773 102.808 223.491 102.046C224.208 101.284 225.318 100.902 226.82 100.902H229.375V102.887H226.988C226.158 102.887 225.553 103.099 225.172 103.525C224.813 103.929 224.634 104.512 224.634 105.274V106.955H229.207V108.94H224.634V124.778H222.414Z" fill="#101010"/>
<path d="M194.322 125.316C192.102 125.316 190.331 124.767 189.009 123.669C187.686 122.57 187.024 121.001 187.024 118.961C187.024 117.369 187.406 116.024 188.168 114.925C188.952 113.827 190.197 112.695 191.901 111.529C191.004 110.341 190.331 109.321 189.883 108.469C189.457 107.617 189.244 106.675 189.244 105.644C189.244 104.007 189.737 102.718 190.724 101.777C191.732 100.835 193.078 100.364 194.759 100.364C196.418 100.364 197.718 100.813 198.66 101.709C199.624 102.584 200.106 103.806 200.106 105.375C200.106 106.653 199.725 107.807 198.962 108.839C198.2 109.847 196.911 110.935 195.095 112.101L201.081 119.7C201.91 118.557 202.359 116.954 202.426 114.892L204.713 115.127C204.646 116.315 204.41 117.481 204.007 118.624C203.603 119.745 203.099 120.676 202.493 121.415L205.251 124.778H202.527L201.081 122.996C200.386 123.691 199.478 124.251 198.357 124.677C197.236 125.103 195.891 125.316 194.322 125.316ZM193.885 110.486C195.297 109.567 196.283 108.749 196.844 108.032C197.427 107.314 197.718 106.473 197.718 105.509C197.718 104.59 197.46 103.884 196.945 103.391C196.429 102.875 195.7 102.617 194.759 102.617C193.795 102.617 193.033 102.886 192.472 103.425C191.934 103.963 191.665 104.702 191.665 105.644C191.665 106.384 191.822 107.101 192.136 107.796C192.45 108.491 193.033 109.388 193.885 110.486ZM194.591 123.164C195.734 123.164 196.732 122.996 197.584 122.66C198.458 122.301 199.131 121.853 199.601 121.315L193.246 113.277C191.878 114.197 190.903 115.093 190.32 115.968C189.737 116.842 189.446 117.84 189.446 118.961C189.446 120.283 189.883 121.315 190.757 122.054C191.631 122.794 192.909 123.164 194.591 123.164Z" fill="#101010"/>
<path d="M164.674 125.182C162.97 125.182 161.524 124.789 160.336 124.005C159.148 123.198 158.229 122.099 157.579 120.709C156.951 119.297 156.637 117.683 156.637 115.867C156.637 114.051 156.951 112.448 157.579 111.058C158.206 109.646 159.103 108.547 160.269 107.762C161.457 106.955 162.881 106.552 164.539 106.552C166.131 106.552 167.499 106.933 168.642 107.695C169.808 108.457 170.705 109.534 171.332 110.924C171.96 112.313 172.274 113.939 172.274 115.8V116.506H158.957C159.047 118.613 159.596 120.238 160.605 121.382C161.614 122.503 162.97 123.063 164.674 123.063C165.974 123.063 167.039 122.749 167.869 122.122C168.698 121.494 169.27 120.664 169.584 119.633L171.971 119.801C171.523 121.371 170.66 122.66 169.382 123.668C168.104 124.677 166.535 125.182 164.674 125.182ZM158.957 114.522H169.853C169.741 112.616 169.214 111.17 168.272 110.184C167.331 109.175 166.086 108.67 164.539 108.67C162.993 108.67 161.726 109.186 160.74 110.217C159.753 111.226 159.159 112.661 158.957 114.522Z" fill="#101010"/>
<path d="M145.165 124.778V106.955H147.082L147.182 110.486C147.877 108.132 149.368 106.955 151.655 106.955H153.202V109.108H151.588C150.243 109.108 149.2 109.545 148.46 110.419C147.743 111.271 147.384 112.437 147.384 113.916V124.778H145.165Z" fill="#101010"/>
<path d="M129.932 125.182C128.139 125.182 126.704 124.756 125.628 123.904C124.552 123.052 124.014 121.875 124.014 120.373C124.014 118.916 124.485 117.761 125.426 116.909C126.368 116.035 127.747 115.43 129.563 115.093L136.154 113.849C136.154 112.078 135.772 110.778 135.01 109.948C134.248 109.096 133.093 108.67 131.547 108.67C130.179 108.67 129.092 108.996 128.285 109.646C127.478 110.296 126.94 111.215 126.671 112.403L124.317 112.201C124.653 110.475 125.437 109.108 126.671 108.099C127.926 107.068 129.551 106.552 131.547 106.552C133.766 106.552 135.459 107.18 136.624 108.435C137.79 109.69 138.373 111.484 138.373 113.816V121.247C138.373 121.853 138.463 122.267 138.642 122.492C138.844 122.693 139.158 122.794 139.584 122.794H140.122V124.778C139.897 124.823 139.595 124.845 139.214 124.845C138.25 124.845 137.521 124.621 137.028 124.173C136.535 123.702 136.243 122.884 136.154 121.718C135.705 122.704 134.909 123.534 133.766 124.207C132.623 124.857 131.345 125.182 129.932 125.182ZM130.134 123.198C131.367 123.198 132.432 122.951 133.329 122.458C134.226 121.965 134.921 121.303 135.414 120.474C135.907 119.622 136.154 118.669 136.154 117.615V115.833L130.033 116.977C128.755 117.201 127.814 117.582 127.209 118.12C126.626 118.636 126.334 119.319 126.334 120.171C126.334 121.135 126.671 121.886 127.343 122.424C128.016 122.94 128.946 123.198 130.134 123.198Z" fill="#101010"/>
<path d="M107.794 124.778C104.947 124.778 103.524 123.388 103.524 120.608V108.94H100.733V106.956H103.524V102.786H105.743V106.956H110.35V108.94H105.743V120.541C105.743 121.371 105.923 121.954 106.281 122.29C106.662 122.626 107.234 122.794 107.996 122.794H110.35V124.778H107.794ZM117.345 124.778C114.498 124.778 113.074 123.388 113.074 120.608V108.94H110.283V106.956H113.074V102.786H115.294V106.956H119.901V108.94H115.294V120.541C115.294 121.371 115.473 121.954 115.832 122.29C116.213 122.626 116.784 122.794 117.547 122.794H119.901V124.778H117.345Z" fill="#101010"/>
<path d="M87.359 125.182C85.5655 125.182 84.1307 124.756 83.0546 123.904C81.9785 123.052 81.4405 121.875 81.4405 120.373C81.4405 118.916 81.9113 117.761 82.8529 116.909C83.7944 116.035 85.1732 115.43 86.9891 115.093L93.5802 113.849C93.5802 112.078 93.199 110.778 92.4368 109.948C91.6746 109.096 90.52 108.67 88.9731 108.67C87.6056 108.67 86.5183 108.996 85.7112 109.646C84.9042 110.296 84.3661 111.215 84.0971 112.403L81.7431 112.201C82.0794 110.475 82.8641 109.108 84.0971 108.099C85.3525 107.068 86.9779 106.552 88.9731 106.552C91.1926 106.552 92.8852 107.18 94.051 108.435C95.2167 109.69 95.7996 111.484 95.7996 113.816V121.247C95.7996 121.853 95.8893 122.267 96.0686 122.492C96.2704 122.693 96.5843 122.794 97.0102 122.794H97.5483V124.778C97.3241 124.823 97.0214 124.845 96.6403 124.845C95.6763 124.845 94.9477 124.621 94.4545 124.173C93.9613 123.702 93.6698 122.884 93.5802 121.718C93.1318 122.704 92.3359 123.534 91.1926 124.207C90.0492 124.857 88.7714 125.182 87.359 125.182ZM87.5608 123.198C88.7938 123.198 89.8587 122.951 90.7554 122.458C91.6522 121.965 92.3471 121.303 92.8404 120.474C93.3336 119.622 93.5802 118.669 93.5802 117.615V115.833L87.4599 116.977C86.182 117.201 85.2404 117.582 84.6351 118.12C84.0523 118.636 83.7608 119.319 83.7608 120.171C83.7608 121.135 84.0971 121.886 84.7697 122.424C85.4422 122.94 86.3726 123.198 87.5608 123.198Z" fill="#101010"/>
<path d="M70.8984 124.778V108.94H68.3763V106.955H70.8984V105.106C70.8984 103.828 71.2571 102.808 71.9745 102.046C72.6919 101.284 73.8016 100.902 75.3037 100.902H77.8594V102.887H75.4718C74.6423 102.887 74.037 103.099 73.6559 103.525C73.2972 103.929 73.1178 104.512 73.1178 105.274V106.955H77.6912V108.94H73.1178V124.778H70.8984Z" fill="#101010"/>
<path d="M56.7931 124.778V106.955H58.7098L58.8107 110.486C59.5057 108.132 60.9965 106.955 63.2832 106.955H64.8301V109.108H63.216C61.8709 109.108 60.8284 109.545 60.0886 110.419C59.3712 111.271 59.0125 112.437 59.0125 113.916V124.778H56.7931Z" fill="#101010"/>
<path d="M43.1851 125.182C41.5709 125.182 40.1698 124.801 38.9816 124.038C37.7934 123.276 36.863 122.2 36.1905 120.81C35.5403 119.42 35.2153 117.772 35.2153 115.867C35.2153 113.961 35.5403 112.313 36.1905 110.924C36.863 109.534 37.7934 108.457 38.9816 107.695C40.1698 106.933 41.5709 106.552 43.1851 106.552C44.7992 106.552 46.2004 106.933 47.3886 107.695C48.5768 108.457 49.4959 109.534 50.1461 110.924C50.7962 112.313 51.1213 113.961 51.1213 115.867C51.1213 117.772 50.7962 119.42 50.1461 120.81C49.4959 122.2 48.5768 123.276 47.3886 124.038C46.2004 124.801 44.7992 125.182 43.1851 125.182ZM43.1851 123.063C44.9337 123.063 46.3013 122.424 47.2877 121.146C48.2965 119.846 48.8009 118.086 48.8009 115.867C48.8009 113.625 48.2965 111.865 47.2877 110.587C46.3013 109.309 44.9337 108.67 43.1851 108.67C41.414 108.67 40.0241 109.309 39.0152 110.587C38.0288 111.865 37.5356 113.625 37.5356 115.867C37.5356 118.086 38.0288 119.846 39.0152 121.146C40.0241 122.424 41.414 123.063 43.1851 123.063ZM39.3515 103.996V101.003H41.7055V103.996H39.3515ZM44.6983 103.996V101.003H47.0523V103.996H44.6983Z" fill="#101010"/>
<path d="M16.6256 124.778V100.902H31.321V103.122H18.9123V111.932H30.7157V114.118H18.9123V124.778H16.6256Z" fill="#101010"/>
</svg>
